<?xml version="1.0" encoding="utf-8"?>
<!-- Generator: Adobe Illustrator 21.0.2, SVG Export Plug-In . SVG Version: 6.00 Build 0)  -->
<svg version="1.1" id="Layer_1" xmlns="http://www.w3.org/2000/svg" xmlns:xlink="http://www.w3.org/1999/xlink" x="0px" y="0px"
	 viewBox="0 0 527 287.6" style="enable-background:new 0 0 527 287.6;" xml:space="preserve">
<style type="text/css">
	.st0{fill:#808285;}
	.st1{fill:#231F20;}
	.st2{fill:none;}
	.st3{fill:#0089B4;}
	.st4{fill:#00405C;}
	.st5{fill:#01405C;}
</style>
<path class="st0" d="M467.7,138.3l-0.2,35.5c-1.6,0.9-35,20.2-55.1,31.8c-60.2-35.2-24.9-14.6-54.3-31.7l0.2-35.3
	c10.9,6.4,42.1,24.6,54.2,31.6c0,0,51.8-29.9,54.6-31.5h0L467.7,138.3z"/>
<polygon class="st1" points="312,189.2 312,182.8 312,189.2 "/>
<path class="st2" d="M402.8,144.2c-1.8-1.1-4.4-2.6-7.6-4.4L402.8,144.2z"/>
<path class="st3" d="M412.4,142.2c65.3-37.7,65.6-37.9,112.6-65v0c-42-24.3-5.2-3-112-64.7l-65.7,38.1l30.5,17.8L413,47.8
	c45.7,26.4,35.4,20.4,50.7,29.3c-47.1,27.2-32.2,18.6-51.3,29.6c-12.1-7.1-68.8-40.2-80.9-47.3c-0.4,0.2-30.1,17.4-30.6,17.6v0
	l104.6,61.1C408.4,139.9,410.7,141.3,412.4,142.2z"/>
<path class="st4" d="M405.6,138.2L301,77.1v129.4c0,0,111.9,64.6,112,64.7c25.9-15,111.9-64.6,112-64.7V96.3L494.3,114v74.8
	c0,0-81.4,47-81.4,47l-81.4-47V95C337.9,98.7,385.1,126.3,405.6,138.2z"/>
<g>
	<path class="st5" d="M61,131.8l6.3-12.1h15.8c3.4,0,5.1-2,5.1-5.9c0-7.4-3.5-13.1-10.6-17l6.2-10.6c11.3,6.7,17,15.9,17,27.8
		c0,11.9-5.1,17.8-15.4,17.8H61z"/>
	<path class="st5" d="M139.3,128.9c-2.1,0.4-4.2,0.6-6.4,0.6c-6.1,0-11-2.3-14.7-6.9c-3-3.9-4.5-8.5-4.5-14c0-7.3,2-13.1,6-17.3
		c3.5-3.7,8.2-5.6,14-5.6c5.9,0,10.6,1.9,13.9,5.7c2.9,3.3,4.3,7.5,4.3,12.8v21.4c0,7.9-2.1,14.1-6.2,18.6
		c-3.9,4.3-9.1,6.4-15.8,6.4c-4.2,0-8.3-1.1-12.3-3.4v-10.9c3.6,2.1,7.2,3.1,10.8,3.1C134.9,139.4,138.5,135.9,139.3,128.9z
		 M139.4,104c0-4.4-1.9-6.6-5.7-6.6c-2.4,0-4.3,1-5.6,2.9c-1.4,1.9-2.1,4.6-2.1,7.9c0,7.1,2.5,10.6,7.6,10.6c2.7,0,4.6-0.7,5.8-2
		V104z"/>
	<path class="st5" d="M200.5,119.7h9v12.1h-10.2c-2.3,0-4.4-0.3-6.3-0.9c-0.9,6.4-3.4,11.5-7.7,15.2c-3.9,3.3-8.5,5-13.9,5
		c-4.2,0-8.3-1.1-12.3-3.2v-11c3.5,1.9,6.9,2.9,10.2,2.9c3.7,0,6.5-1.2,8.6-3.5c2-2.4,3-5.7,3-9.9V94l8.2-4.3l4.3-2.3v0.1l0.1-0.1
		v25.1c0,2.6,0.5,4.4,1.6,5.5C196.2,119.1,198,119.7,200.5,119.7z M186.4,77.3c-2,0-3.6-0.6-4.8-1.8c-1.2-1.2-1.8-2.8-1.8-4.9
		c0-1.9,0.6-3.5,1.8-4.7c1.2-1.2,2.8-1.8,4.8-1.8s3.6,0.6,4.8,1.8c1.2,1.2,1.8,2.8,1.8,4.8C192.9,75,190.7,77.3,186.4,77.3z"/>
	<path class="st5" d="M219.5,104.2c0-6,1.9-10.7,5.6-14.1c3.3-2.9,7.5-4.4,12.6-4.4c6.6,0,11.7,2.4,15.4,7.3
		c3.1,4.1,4.7,9.3,4.7,15.7c0,7.4-2,13.2-5.9,17.5c-3.5,3.7-8,5.6-13.5,5.6c-5.3,0-9.7-1.2-13.1-3.5c-3.2,2.3-7.1,3.5-11.6,3.5
		h-10.2v-12.1h9c2.5,0,4.3-0.5,5.4-1.6c1.1-1.1,1.6-3,1.6-5.5V104.2z M232.1,114.1c0,3.7,2,5.6,5.9,5.6c4.9,0,7.4-3.8,7.4-11.4
		c0-7.3-2.6-10.9-7.7-10.9c-3.7,0-5.6,2.2-5.6,6.6V114.1z"/>
</g>
<g>
	<path class="st5" d="M28.1,201.8h-14c-8.2,0-12.3-3.6-12.3-10.7c0-3.3,1-6,3.1-8.2s5.1-3.3,9.1-3.3c1.6,0,3.2,0.1,4.8,0.4
		c1.6,0.3,2.8,0.5,3.6,0.8l1.2,0.4V197h4.5V201.8z M11.7,175.7c-0.6,0.6-1.3,0.9-2.2,0.9c-0.9,0-1.6-0.3-2.2-0.9
		c-0.6-0.6-0.9-1.3-0.9-2.2c0-0.9,0.3-1.6,0.9-2.2c0.6-0.6,1.3-0.9,2.2-0.9c0.9,0,1.6,0.3,2.2,0.9c0.6,0.6,0.9,1.3,0.9,2.2
		C12.6,174.4,12.3,175.1,11.7,175.7z M17.7,197v-11.8c-1.2-0.6-2.6-0.8-4.4-0.8c-1.7,0-3,0.6-4,1.7c-1,1.2-1.5,2.6-1.5,4.5
		c0,4.3,2.3,6.4,6.9,6.4H17.7z M19.3,175.7c-0.6,0.6-1.3,0.9-2.2,0.9c-0.9,0-1.6-0.3-2.2-0.9c-0.6-0.6-0.9-1.3-0.9-2.2
		c0-0.9,0.3-1.6,0.9-2.2c0.6-0.6,1.3-0.9,2.2-0.9c0.9,0,1.6,0.3,2.2,0.9c0.6,0.6,0.9,1.3,0.9,2.2C20.2,174.4,19.9,175.1,19.3,175.7z
		"/>
	<path class="st5" d="M27.4,201.8V197H36v-16.8h6.1V197h4.6v4.8H27.4z M34.4,208.7c0,0.9-0.3,1.6-0.9,2.2c-0.6,0.6-1.3,0.9-2.2,0.9
		c-0.9,0-1.6-0.3-2.2-0.9c-0.6-0.6-0.9-1.3-0.9-2.2c0-0.9,0.3-1.6,0.9-2.2c0.6-0.6,1.3-0.9,2.2-0.9c0.9,0,1.6,0.3,2.2,0.9
		C34.1,207,34.4,207.8,34.4,208.7z M42,208.7c0,0.9-0.3,1.6-0.9,2.2c-0.6,0.6-1.3,0.9-2.2,0.9c-0.9,0-1.6-0.3-2.2-0.9
		s-0.9-1.3-0.9-2.2c0-0.9,0.3-1.6,0.9-2.2c0.6-0.6,1.3-0.9,2.2-0.9c0.9,0,1.6,0.3,2.2,0.9C41.7,207,42,207.8,42,208.7z"/>
	<path class="st5" d="M45.9,201.8V197h13.7c-0.1-3.6-1.1-6.4-3-8.5c-1.9-2.1-4.6-3.6-8.3-4.5v-4.5l18.2-11.4v6l-11.2,6.8
		c3.3,1.5,5.8,3.6,7.6,6.4c1.8,2.8,2.6,6.6,2.6,11.3v3.1H45.9z"/>
	<path class="st5" d="M70.6,201.8V197h13.7c-0.2-3.4-1.1-6.2-2.9-8.3c-1.7-2.1-4.4-3.6-8-4.6l1.5-5.1c4.9,1.3,8.6,3.4,11.1,6.2
		c2.5,2.8,3.9,6.8,4.2,11.8h3v4.8H70.6z M77.6,176.3c-0.9,0-1.6-0.3-2.3-0.9c-0.6-0.6-0.9-1.4-0.9-2.3c0-0.9,0.3-1.6,0.9-2.3
		c0.6-0.6,1.4-0.9,2.2-0.9c0.9,0,1.6,0.3,2.2,0.9c0.6,0.6,0.9,1.4,0.9,2.3c0,0.9-0.3,1.6-0.9,2.3C79.2,176,78.5,176.3,77.6,176.3z"
		/>
	<path class="st5" d="M92.5,201.8V197h5.7v-27.6h6.1v32.4H92.5z"/>
	<path class="st5" d="M112.1,201.8v-32.4h6.1v32.4H112.1z"/>
	<path class="st5" d="M153.5,198.7v-29.4h6.1v28.9c0,4.7-1.1,8.2-3.2,10.6c-2.1,2.3-5.2,3.5-9.2,3.5c-7.9,0-11.9-4.4-11.9-13.1
		c0-2.8,0.4-5.6,1.1-8.2l6.3-1.2c-0.9,3.1-1.3,6-1.3,8.8c0,5.9,2.1,8.9,6.3,8.9C151.6,207.6,153.5,204.6,153.5,198.7z"/>
	<path class="st5" d="M172.4,213.3c-1,0-2.1,0-3.3-0.1c-1.2-0.1-2.1-0.2-2.8-0.3l-1-0.1l0.4-5c2.4,0.5,4.8,0.8,7.2,0.8
		c5.3,0,8-2,8-6.1v-0.7h-3.6c-8.2,0-12.3-3.6-12.3-10.7c0-3.3,1-6,3.1-8.2s5.1-3.3,9.1-3.3c1.6,0,3.2,0.1,4.8,0.4
		c1.6,0.3,2.8,0.5,3.6,0.8l1.2,0.4V197h4.6v4.8h-4.6v0.1c0,3.4-1.2,6.2-3.5,8.3C180.9,212.3,177.3,213.3,172.4,213.3z M180.9,197
		v-11.8c-1.2-0.6-2.6-0.8-4.4-0.8c-1.7,0-3,0.6-4,1.7c-1,1.2-1.5,2.6-1.5,4.5c0,4.3,2.3,6.4,6.9,6.4H180.9z"/>
	<path class="st5" d="M190.6,201.8V197h5.7v-27.6h6.1V197h4.6v4.8H190.6z"/>
	<path class="st5" d="M206.3,201.8V197h17.8c0.2-1.2,0.2-2.4,0.2-3.5c0-3-0.7-5.2-2.1-6.7c-1.4-1.4-3.7-2.2-6.9-2.2
		c-1.7,0-3.5,0.1-5.3,0.4v-4.7c2.1-0.3,4.1-0.4,5.9-0.4c5.1,0,8.7,1.1,11,3.3c2.3,2.2,3.4,5.6,3.4,10.1c0,1.3-0.1,2.5-0.2,3.7h3.6
		v4.8H206.3z"/>
	<path class="st5" d="M233.1,201.8V197h5.7v-27.6h6.1V197h4.6v4.8H233.1z"/>
	<path class="st5" d="M248.8,201.8V197h5.7v-27.6h6.1v32.4H248.8z"/>
</g>
<g>
</g>
<g>
</g>
<g>
</g>
<g>
</g>
<g>
</g>
<g>
</g>
</svg>
