<?xml version="1.0" encoding="UTF-8"?> <!-- Generator: Adobe Illustrator 21.0.2, SVG Export Plug-In . SVG Version: 6.00 Build 0) --> <svg xmlns="http://www.w3.org/2000/svg" xmlns:xlink="http://www.w3.org/1999/xlink" id="Layer_1" x="0px" y="0px" viewBox="0 0 224 258.7" style="enable-background:new 0 0 224 258.7;" xml:space="preserve"> <style type="text/css"> .st0{fill:#808285;} .st1{fill:#231F20;} .st2{fill:none;} .st3{fill:#0089B4;} .st4{fill:#00405C;} </style> <path class="st0" d="M166.7,125.8l-0.2,35.5c-1.6,0.9-35,20.2-55.1,31.8c-60.2-35.2-24.9-14.6-54.3-31.7l0.2-35.3 c10.9,6.4,42.1,24.6,54.2,31.6c0,0,51.8-29.9,54.6-31.5h0L166.7,125.8z"></path> <polygon class="st1" points="11,176.8 11.1,170.4 11.1,176.8 "></polygon> <path class="st2" d="M101.8,131.8c-1.8-1.1-4.4-2.6-7.6-4.4L101.8,131.8z"></path> <path class="st3" d="M111.4,129.8c65.3-37.7,65.6-37.9,112.6-65v0c-42-24.3-5.2-3-112-64.7L46.3,38.1L76.8,56L112,35.4 c45.7,26.4,35.4,20.4,50.7,29.3c-47.1,27.2-32.2,18.6-51.3,29.6C99.3,87.2,42.7,54.1,30.6,47C30.1,47.3,0.4,64.4,0,64.7v0 l104.6,61.1C107.4,127.5,109.8,128.8,111.4,129.8z"></path> <path class="st4" d="M104.6,125.8L0,64.7V194c0,0,111.9,64.6,112,64.7c25.9-15,111.9-64.6,112-64.7V83.8l-30.7,17.7v74.8 c0,0-81.4,47-81.4,47l-81.4-47V82.6C36.9,86.3,84.2,113.9,104.6,125.8z"></path> <g> </g> <g> </g> <g> </g> <g> </g> <g> </g> <g> </g> </svg> 