<?xml version="1.0" encoding="utf-8"?>
<!-- Generator: Adobe Illustrator 21.0.2, SVG Export Plug-In . SVG Version: 6.00 Build 0)  -->
<svg version="1.1" id="Capa_1" xmlns="http://www.w3.org/2000/svg" xmlns:xlink="http://www.w3.org/1999/xlink" x="0px" y="0px"
	 viewBox="0 0 480 480" style="enable-background:new 0 0 480 480;" xml:space="preserve">
<style type="text/css">
	.st0{fill:url(#SVGID_1_);}
	.st1{fill:#FFFFFF;}
	.st2{fill:#231F20;}
	.st3{fill:none;}
</style>
<radialGradient id="SVGID_1_" cx="240" cy="240" r="240" gradientTransform="matrix(-1 0 0 -1 480 480)" gradientUnits="userSpaceOnUse">
	<stop  offset="0" style="stop-color:#00BCAE"/>
	<stop  offset="1" style="stop-color:#00CDC4"/>
</radialGradient>
<path class="st0" d="M30,0h420c16.6,0,30,13.4,30,30v420c0,16.6-13.4,30-30,30H30c-16.6,0-30-13.4-30-30V30C0,13.4,13.4,0,30,0z"/>
<path class="st1" d="M305.8,235.9l-0.3,41.2c-1.8,1-40.6,23.4-63.8,36.9c-69.8-40.8-28.9-16.9-63-36.8l0.3-41
	c12.7,7.4,48.8,28.5,62.8,36.7c0,0,60-34.7,63.3-36.5h0L305.8,235.9z"/>
<polygon class="st2" points="242.2,295 242.3,287.6 242.3,295 "/>
<path class="st3" d="M246.6,242.9c-2.1-1.2-5.1-3-8.8-5.1L246.6,242.9z"/>
<path class="st1" d="M241.5,240.5c75.7-43.7,76-43.9,130.6-75.4V165c-48.8-28.1-6.1-3.5-129.9-75l-76.2,44.2l35.3,20.6l40.9-23.8
	c53,30.6,41,23.7,58.8,34c-54.6,31.5-37.3,21.6-59.5,34.3c-14.1-8.2-79.8-46.6-93.8-54.8c-0.5,0.3-35,20.2-35.4,20.5v0l121.3,70.9
	C237,237.8,239.7,239.4,241.5,240.5z"/>
<path class="st1" d="M233.7,235.9L112.4,165v150c0,0,129.7,74.9,129.9,75c30.1-17.3,129.8-74.9,129.9-75V187.2l-35.6,20.5v86.7
	c0,0-94.3,54.5-94.3,54.5l-94.3-54.5V185.8C155.2,190,210,222,233.7,235.9z"/>
</svg>
