<?xml version="1.0" encoding="UTF-8"?> <!-- Generator: Adobe Illustrator 21.0.2, SVG Export Plug-In . SVG Version: 6.00 Build 0) --> <svg xmlns="http://www.w3.org/2000/svg" xmlns:xlink="http://www.w3.org/1999/xlink" id="Capa_1" x="0px" y="0px" viewBox="0 0 480 480" style="enable-background:new 0 0 480 480;" xml:space="preserve"> <style type="text/css"> .st0{fill:url(#SVGID_1_);} .st1{fill:#FFFFFF;} </style> <radialGradient id="SVGID_1_" cx="240" cy="240" r="240" gradientUnits="userSpaceOnUse"> <stop offset="0" style="stop-color:#FC9549"></stop> <stop offset="1" style="stop-color:#E08241"></stop> </radialGradient> <path class="st0" d="M450,480H30c-16.6,0-30-13.4-30-30V30C0,13.4,13.4,0,30,0h420c16.6,0,30,13.4,30,30v420 C480,466.6,466.6,480,450,480z"></path> <g> <g> <path class="st1" d="M241.1,378.1c-1.1-1.1-2.6-1.7-4.2-1.7c-1.6,0-3.1,0.6-4.2,1.7c-1.1,1.1-1.7,2.6-1.7,4.2 c0,1.6,0.6,3.1,1.7,4.2c1.1,1.1,2.6,1.7,4.2,1.7c1.6,0,3.1-0.6,4.2-1.7c1.1-1.1,1.7-2.6,1.7-4.2 C242.8,380.7,242.2,379.2,241.1,378.1z"></path> </g> </g> <g> <g> <path class="st1" d="M356.6,279.1l-19.7-4.7v-7.8c10.9-6.9,18.2-19.1,18.2-32.9v-22c0-21.5-17.5-38.9-38.9-38.9 c-11.6,0-22,5.1-29.1,13.1c-6.3-21.6-26.2-37.5-49.9-37.5h0c-23.7,0-43.7,15.9-49.9,37.6c-7.1-8.1-17.6-13.2-29.2-13.2 c-21.5,0-38.9,17.5-38.9,38.9v22c0,13.8,7.3,26,18.2,32.9v7.8l-19.7,4.7C99,283.5,86.1,300,86.1,319v39.6c0,3.3,2.6,5.9,5.9,5.9 h47.2v17.7c0,3.3,2.6,5.9,5.9,5.9h64.7c3.3,0,5.9-2.6,5.9-5.9c0-3.3-2.6-5.9-5.9-5.9h-26.3v-26c0-3.3-2.6-5.9-5.9-5.9 c-3.3,0-5.9,2.6-5.9,5.9v26h-20.7v-26.6c0-20,13.6-37.2,33-41.9l29-7l18.7,42.5c0.9,2.1,3.1,3.5,5.4,3.5h0c2.3,0,4.5-1.4,5.4-3.5 l18.6-42.4l28.9,6.9c19.5,4.7,33.1,21.9,33.1,41.9v6.6c-0.3,0.7-0.5,1.5-0.5,2.3s0.2,1.6,0.5,2.3v15.4h-20.6v-26 c0-3.3-2.6-5.9-5.9-5.9c-3.3,0-5.9,2.6-5.9,5.9v26h-28.9c-3.3,0-5.9,2.6-5.9,5.9c0,3.3,2.6,5.9,5.9,5.9H329c3.3,0,5.9-2.6,5.9-5.9 v-17.7h47.3c3.3,0,5.9-2.6,5.9-5.9V319C388.1,300,375.1,283.5,356.6,279.1z M316.1,184.6c15,0,27.1,12.2,27.1,27.1v1.5v0.6h-16.9 c-12.7,0-25.3-3.3-36.3-9.7C293.4,192.8,303.8,184.6,316.1,184.6z M289,232.7c0-0.6,0-15.9,0-15.9c11.6,5.7,24.4,8.7,37.4,8.7 h16.9v8.1c0,15-12.2,27.1-27.1,27.1c-15,0-27.1-12.2-27.1-27.1L289,232.7L289,232.7z M197,200.3c0-22.1,18-40.1,40.1-40.1 c22.1,0,40.1,18,40.1,40.1v0.8l-21.9-12.9c-2.5-1.5-5.7-0.9-7.5,1.3c-8.5,10.2-21,16-34.2,16H197V200.3z M130.9,213.2v-1.5 c0-15,12.2-27.1,27.1-27.1c12.3,0,22.7,8.2,26,19.5c-11,6.3-23.6,9.7-36.3,9.7h-16.9V213.2z M130.9,233.7v-8.1h16.9 c13,0,25.8-3,37.4-8.7v16.8c0,15-12.2,27.1-27.1,27.1C143,260.8,130.9,248.6,130.9,233.7z M139.1,349.8v3h-17.7v-26.2 c0-3.3-2.6-5.9-5.9-5.9c-3.3,0-5.9,2.6-5.9,5.9v26.2H97.9V319c0-13.6,9.2-25.3,22.5-28.5l18.7-4.5l12.2,29.2 C143.6,324.8,139.1,336.8,139.1,349.8z M158,300.9l-9-21.5c0-0.1,0-0.3,0-0.4v-7.5c2.9,0.7,5.9,1,8.9,1c3.1,0,6-0.4,8.9-1v7.1 c0,0.1,0,0.2,0,0.3c0,0.2,0,0.4,0,0.6L158,300.9z M181.2,296.4c-3.5,0.8-6.8,2-10,3.4l5.7-13.8l18.7,4.5c1.5,0.3,2.9,0.8,4.2,1.4 L181.2,296.4z M210.5,284.1c-3.7-2.3-7.8-4-12.1-5l-19.7-4.7v-7.7c4.9-3.1,9.1-7.3,12.2-12.2c4.4,8.7,11.3,16,19.6,21V284.1z M251.8,292.9l-14.7,33.5l-14.8-33.6v-12.2c4.7,1.4,9.7,2.2,14.8,2.2c5.1,0,10-0.7,14.6-2.1L251.8,292.9L251.8,292.9z M237.1,271 c-22.1,0-40.1-18-40.1-40.1v-13.6h16.6c15.1,0,29.3-6,39.9-16.5l23.7,13.9v17.6C276.5,253.8,258.8,271,237.1,271z M263.6,275.6 L263.6,275.6c8.4-5,15.3-12.3,19.7-21c3.1,4.9,7.2,9,12.1,12.1v7.7l-19.7,4.7c-4.3,1-8.4,2.7-12.1,5.1L263.6,275.6L263.6,275.6z M292.8,296.4l-18.7-4.5c1.4-0.6,2.9-1.1,4.3-1.4l18.7-4.5l5.8,13.8C299.7,298.5,296.3,297.3,292.8,296.4z M307.2,279.7 c0-0.2,0-0.4,0-0.6c0-0.1,0-0.1,0-0.2v-7.3c2.9,0.7,5.8,1,8.9,1c3.1,0,6.1-0.4,8.9-1v7.5c0,0.1,0,0.2,0,0.3l-9,21.6L307.2,279.7z M376.3,352.8h-11.8v-26.2c0-3.3-2.6-5.9-5.9-5.9s-5.9,2.6-5.9,5.9v26.2h-17.8v-3c0-12.9-4.5-24.9-12.1-34.4l12.2-29.3l18.7,4.5 c13.2,3.2,22.5,14.9,22.5,28.5V352.8z"></path> </g> </g> <g> <g> <path class="st1" d="M221.5,224.3c-1.1-1.1-2.6-1.7-4.2-1.7c-1.6,0-3.1,0.6-4.2,1.7c-1.1,1.1-1.7,2.6-1.7,4.2 c0,1.6,0.6,3.1,1.7,4.2s2.6,1.7,4.2,1.7c1.6,0,3.1-0.6,4.2-1.7c1.1-1.1,1.7-2.6,1.7-4.2C223.2,226.9,222.6,225.4,221.5,224.3z"></path> </g> </g> <g> <g> <path class="st1" d="M260.9,224.3c-1.1-1.1-2.6-1.7-4.2-1.7c-1.6,0-3.1,0.6-4.2,1.7c-1.1,1.1-1.7,2.6-1.7,4.2 c0,1.6,0.6,3.1,1.7,4.2c1.1,1.1,2.6,1.7,4.2,1.7c1.6,0,3.1-0.6,4.2-1.7c1.1-1.1,1.7-2.6,1.7-4.2 C262.6,226.9,262,225.4,260.9,224.3z"></path> </g> </g> <g> <g> <path class="st1" d="M248.4,244.2c-2.3-2.3-6-2.3-8.3,0c-1.7,1.7-4.6,1.7-6.3,0c-2.3-2.3-6-2.3-8.3,0c-2.3,2.3-2.3,6,0,8.3 c3.2,3.2,7.3,4.8,11.5,4.8s8.3-1.6,11.5-4.8C250.7,250.2,250.7,246.5,248.4,244.2z"></path> </g> </g> <g> <g> <path class="st1" d="M330,118h-4c-3.3,0-5.9,2.6-5.9,5.9s2.6,5.9,5.9,5.9h4c3.3,0,5.9-2.6,5.9-5.9S333.2,118,330,118z"></path> </g> </g> <g> <g> <path class="st1" d="M358.6,118h-4c-3.3,0-5.9,2.6-5.9,5.9s2.6,5.9,5.9,5.9h4c3.3,0,5.9-2.6,5.9-5.9S361.8,118,358.6,118z"></path> </g> </g> <g> <g> <path class="st1" d="M342.2,130.3c-3.3,0-5.9,2.6-5.9,5.9v4c0,3.3,2.6,5.9,5.9,5.9c3.3,0,5.9-2.6,5.9-5.9v-4 C348.1,133,345.5,130.3,342.2,130.3z"></path> </g> </g> <g> <g> <path class="st1" d="M342.2,101.7c-3.3,0-5.9,2.6-5.9,5.9v4c0,3.3,2.6,5.9,5.9,5.9c3.3,0,5.9-2.6,5.9-5.9v-4 C348.1,104.4,345.5,101.7,342.2,101.7z"></path> </g> </g> <g> <g> <path class="st1" d="M119.3,118h-4c-3.3,0-5.9,2.6-5.9,5.9s2.6,5.9,5.9,5.9h4c3.3,0,5.9-2.6,5.9-5.9S122.5,118,119.3,118z"></path> </g> </g> <g> <g> <path class="st1" d="M147.9,118h-4c-3.3,0-5.9,2.6-5.9,5.9s2.6,5.9,5.9,5.9h4c3.3,0,5.9-2.6,5.9-5.9S151.2,118,147.9,118z"></path> </g> </g> <g> <g> <path class="st1" d="M131.6,130.3c-3.3,0-5.9,2.6-5.9,5.9v4c0,3.3,2.6,5.9,5.9,5.9c3.3,0,5.9-2.6,5.9-5.9v-4 C137.5,133,134.8,130.3,131.6,130.3z"></path> </g> </g> <g> <g> <path class="st1" d="M131.6,101.7c-3.3,0-5.9,2.6-5.9,5.9v4c0,3.3,2.6,5.9,5.9,5.9c3.3,0,5.9-2.6,5.9-5.9v-4 C137.5,104.4,134.8,101.7,131.6,101.7z"></path> </g> </g> <g> <g> <path class="st1" d="M237.1,108.7c-3.3,0-5.9,2.6-5.9,5.9v15.5c0,3.3,2.6,5.9,5.9,5.9c3.3,0,5.9-2.6,5.9-5.9v-15.5 C243,111.3,240.3,108.7,237.1,108.7z"></path> </g> </g> <g> <g> <path class="st1" d="M241.2,87.9c-1.1-1.1-2.6-1.7-4.2-1.7c-1.6,0-3.1,0.6-4.2,1.7c-1.1,1.1-1.7,2.6-1.7,4.2 c0,1.6,0.6,3.1,1.7,4.2s2.6,1.7,4.2,1.7c1.6,0,3.1-0.6,4.2-1.7c1.1-1.1,1.7-2.6,1.7-4.2C243,90.5,242.3,89,241.2,87.9z"></path> </g> </g> <g> <g> <path class="st1" d="M216.4,109.9l-8.6-8.6c-2.3-2.3-6-2.3-8.3,0c-2.3,2.3-2.3,6,0,8.3l8.6,8.6c1.2,1.2,2.7,1.7,4.2,1.7 s3-0.6,4.2-1.7C218.7,115.9,218.7,112.2,216.4,109.9z"></path> </g> </g> <g> <g> <path class="st1" d="M274.7,100.9c-2.3-2.3-6-2.3-8.3,0l-8.9,8.9c-2.3,2.3-2.3,6,0,8.3c1.2,1.2,2.7,1.7,4.2,1.7 c1.5,0,3-0.6,4.2-1.7l8.9-8.9C277,106.9,277,103.2,274.7,100.9z"></path> </g> </g> </svg> 