<?xml version="1.0" encoding="UTF-8"?> <!-- Generator: Adobe Illustrator 21.0.2, SVG Export Plug-In . SVG Version: 6.00 Build 0) --> <svg xmlns="http://www.w3.org/2000/svg" xmlns:xlink="http://www.w3.org/1999/xlink" id="Capa_1" x="0px" y="0px" viewBox="0 0 480 480" style="enable-background:new 0 0 480 480;" xml:space="preserve"> <style type="text/css"> .st0{fill:url(#SVGID_1_);} .st1{fill:#FFFFFF;} </style> <radialGradient id="SVGID_1_" cx="240" cy="240" r="240" gradientUnits="userSpaceOnUse"> <stop offset="0" style="stop-color:#FC7765"></stop> <stop offset="1" style="stop-color:#FC5E49"></stop> </radialGradient> <path class="st0" d="M450,480H30c-16.6,0-30-13.4-30-30V30C0,13.4,13.4,0,30,0h420c16.6,0,30,13.4,30,30v420 C480,466.6,466.6,480,450,480z"></path> <g> <g> <path class="st1" d="M342.9,221c-2.1-5.9-7.7-9.8-13.9-9.8c-6.2,0-11.8,4-13.8,9.8h-30.4v-19.7h19.7c2.7,0,4.9-2.2,4.9-4.9 c0,0,0,0,0,0v-20.6c7.7-2.7,11.7-11.1,9-18.8c-2.7-7.7-11.1-11.7-18.8-9c-7.7,2.7-11.7,11.1-9,18.8c1.5,4.2,4.8,7.5,9,9v15.7 h-14.8v-9.8c0-2.7-2.2-4.9-4.9-4.9c0,0,0,0,0,0H270v-25.5c7.7-2.7,11.7-11.1,9-18.8c-2.7-7.7-11.1-11.7-18.8-9 c-7.7,2.7-11.7,11.1-9,18.8c1.5,4.2,4.8,7.5,9,9v25.5h-19.7V98.2c0-2.7-2.2-4.9-4.9-4.9c0,0,0,0,0,0c-60.7,0-108.2,43.9-108.2,100 c0,26.6,10.6,61.9,27.6,92c3.1,5.4,7,11.1,11.3,17.1c8.9,12.7,18.9,27,19.9,39.5c-3.8,2.7-6,7-5.9,11.7c0,3.3,1.2,6.5,3.3,9.1 c-2.9,2.9-4.5,6.8-4.5,10.9c0,8.1,6.6,14.7,14.8,14.8h83.6c8.2-0.1,14.8-6.7,14.8-14.9c0-0.1,0-0.1,0-0.2c0-4-1.6-7.8-4.5-10.6 c2.1-2.7,3.3-6,3.3-9.4c0-7.8-6.3-14.1-14.1-14.1c-0.2,0-0.4,0-0.6,0h-35.6v-93.6h9.8v14.8c0,2.7,2.2,4.9,4.9,4.9c0,0,0,0,0,0H270 v5.8c-7.7,2.7-11.7,11.1-9,18.8c2.7,7.7,11.1,11.7,18.8,9c7.7-2.7,11.7-11.1,9-18.8c-1.5-4.2-4.8-7.5-9-9v-10.7 c0-2.7-2.2-4.9-4.9-4.9c0,0,0,0,0,0h-14.8v-9.8h19.7c2.7,0,4.9-2.2,4.9-4.9c0,0,0,0,0,0v-9.8h30.4c2.7,7.7,11.2,11.7,18.8,8.9 C341.6,237.1,345.6,228.6,342.9,221z M304.4,157.1c2.7,0,4.9,2.2,4.9,4.9c0,2.7-2.2,4.9-4.9,4.9c-2.7,0-4.9-2.2-4.9-4.9 C299.5,159.3,301.7,157.1,304.4,157.1z M174.3,296.8c-4.1-5.8-7.9-11.3-10.8-16.3c-16-28.3-26.3-62.5-26.3-87.2 c0-49,40.7-87.8,93.4-90.1v34.4c-1.3,0.1-2.6,0.2-4.1,0.4c-2.1,0.3-3.8,1.8-4.2,3.9l-1.5,7.1c-1.2,0.3-2.5,0.6-3.7,1l-4.9-5.5 c-1.4-1.6-3.7-2.1-5.6-1.2c-5.5,2.4-10.7,5.4-15.5,9c-1.7,1.3-2.4,3.5-1.7,5.5l2.3,6.9c-0.9,0.9-1.8,1.8-2.7,2.7l-6.9-2.3 c-2-0.6-4.2,0-5.5,1.7c-3.6,4.8-6.7,10-9,15.5c-0.8,1.9-0.3,4.2,1.2,5.6l5.5,4.9c-0.4,1.2-0.7,2.4-1,3.7l-7.6,1.5 c-2.3,0.5-4,2.5-4,4.8v16.8c0,2.3,1.7,4.4,4,4.8l7.6,1.5c0.3,1.2,0.6,2.4,1,3.7l-5.5,4.9c-1.6,1.4-2.1,3.7-1.2,5.6 c2.4,5.5,5.4,10.7,9,15.5c1.3,1.7,3.5,2.4,5.5,1.7l6.9-2.3c0.9,0.9,1.8,1.8,2.7,2.7l-2.3,6.9c-0.7,2,0,4.2,1.7,5.5 c4.8,3.6,10,6.7,15.5,9c1.9,0.8,4.2,0.3,5.6-1.2l4.9-5.5c1.2,0.4,2.5,0.7,3.7,1l1.5,7.1c0.4,2.1,2.1,3.6,4.2,3.9 c1.4,0.2,2.8,0.3,4.1,0.4v54.5h-34.9C193.8,324.7,183.5,310,174.3,296.8z M191.3,211.2c0,22.5,17,41.4,39.3,44v16.9l-0.8-3.9 c-0.4-2-2-3.5-3.9-3.8c-2.9-0.5-5.8-1.3-8.6-2.3c-0.5-0.2-1.1-0.3-1.7-0.3c-1.4,0-2.7,0.6-3.7,1.6l-4.6,5.2 c-2.6-1.3-5-2.7-7.4-4.3l2.1-6.5c0.6-1.9,0-4-1.5-5.3c-2.3-1.9-4.4-4-6.3-6.3c-1.3-1.5-3.4-2.1-5.3-1.5l-6.5,2.1 c-1.6-2.4-3.1-4.8-4.3-7.4l5.2-4.6c1.5-1.3,2-3.4,1.3-5.3c-1-2.8-1.8-5.7-2.3-8.6c-0.4-2-1.9-3.6-3.9-3.9l-6.9-1.4v-8.7l6.9-1.4 c2-0.4,3.5-2,3.9-3.9c0.5-2.9,1.3-5.8,2.3-8.6c0.7-1.9,0.1-4-1.3-5.3l-5.2-4.6c1.3-2.6,2.7-5,4.3-7.4l6.5,2.1c1.9,0.6,4,0,5.3-1.5 c1.9-2.3,4-4.4,6.3-6.3c1.5-1.3,2.1-3.4,1.5-5.3l-2.1-6.5c2.4-1.6,4.8-3.1,7.4-4.3l4.6,5.2c1.3,1.5,3.4,2,5.3,1.3 c2.8-1,5.7-1.8,8.6-2.3c2-0.4,3.5-1.9,3.9-3.8l0.8-3.9v16.9C208.3,169.7,191.3,188.7,191.3,211.2z M230.6,177.2v68.1 c-18.8-2.7-31.9-20.1-29.2-38.9C203.6,191.2,215.5,179.3,230.6,177.2z M282.3,373.7c0,2.7-2.2,4.9-4.9,4.9h-83.6 c-2.8,0-5-2.3-4.9-5.1c0-0.1,0-0.1,0-0.2c0-2.7,2.2-4.9,4.9-4.9h83.6c2.8,0,5,2.3,4.9,5.1C282.3,373.5,282.3,373.6,282.3,373.7z M276.1,349.1c2.5-0.2,4.7,1.6,4.9,4.1c0,0.2,0,0.3,0,0.5c0,2.7-2.2,4.9-4.9,4.9H195c-2.8,0-5-2.3-4.9-5.1c0-0.1,0-0.1,0-0.2 c0.1-2.5,2.2-4.4,4.6-4.2c0.1,0,0.2,0,0.3,0L276.1,349.1L276.1,349.1z M274.9,280c2.7,0,4.9,2.2,4.9,4.9c0,2.7-2.2,4.9-4.9,4.9 c-2.7,0-4.9-2.2-4.9-4.9C270,282.2,272.2,280,274.9,280z M265.1,132.5c2.7,0,4.9,2.2,4.9,4.9c0,2.7-2.2,4.9-4.9,4.9 c-2.7,0-4.9-2.2-4.9-4.9C260.2,134.7,262.4,132.5,265.1,132.5z M274.9,235.8h-34.4v-49.2h34.4V235.8z M329,230.9 c-2.7,0-4.9-2.2-4.9-4.9c0-2.7,2.2-4.9,4.9-4.9c2.7,0,4.9,2.2,4.9,4.9C333.9,228.7,331.7,230.9,329,230.9z"></path> </g> </g> <g> <g> <path class="st1" d="M283,318.1c-1.7,3.1-3.3,6.3-4.6,9.6l9.1,3.6c1.2-2.9,2.5-5.7,4.1-8.5L283,318.1z"></path> </g> </g> <g> <g> <path class="st1" d="M294.1,300.8c-1.9,2.8-3.9,5.6-5.7,8.5l8.3,5.3c1.8-2.8,3.7-5.5,5.5-8.2L294.1,300.8z"></path> </g> </g> <g> <g> <path class="st1" d="M305.2,284.5c-1.7,2.6-3.5,5.4-5.4,8.2l8.1,5.6c2-2.9,4-5.8,5.7-8.5L305.2,284.5z"></path> </g> </g> <g> <g> <path class="st1" d="M314.5,267.3c-1.4,2.9-2.9,5.9-4.4,8.7l8.7,4.6c1.6-3,3.1-6.1,4.6-9.1L314.5,267.3z"></path> </g> </g> <g> <g> <path class="st1" d="M322.1,249.3c-1.1,3-2.4,6.1-3.6,9.1l9.1,3.9c1.3-3.2,2.6-6.3,3.8-9.5L322.1,249.3z"></path> </g> </g> <g> <g> <path class="st1" d="M343.7,192.3l-9.8,0.1l0,0.9c0,2.7-0.1,5.7-0.4,8.7l9.8,0.8c0.3-3.3,0.4-6.5,0.4-9.5L343.7,192.3z"></path> </g> </g> <g> <g> <path class="st1" d="M341.2,171.4l-9.6,2.2c0.7,3.1,1.3,6.2,1.6,9.3l9.8-1.2C342.7,178.3,342,174.8,341.2,171.4z"></path> </g> </g> <g> <g> <path class="st1" d="M334.2,151.5l-8.8,4.3c1.4,2.8,2.6,5.8,3.7,8.7l9.3-3.3C337.1,158,335.7,154.7,334.2,151.5z"></path> </g> </g> <g> <g> <path class="st1" d="M322.9,133.7l-7.7,6.1c2,2.5,3.8,5.1,5.5,7.7l8.3-5.3C327.2,139.4,325.1,136.5,322.9,133.7z"></path> </g> </g> <g> <g> <path class="st1" d="M308.2,118.7l-6.3,7.6c2.4,2,4.8,4.2,7,6.4l7-6.9C313.5,123.3,310.9,121,308.2,118.7z"></path> </g> </g> <g> <g> <path class="st1" d="M290.8,107l-4.7,8.7c2.8,1.5,5.6,3.2,8.2,4.9l5.5-8.2C296.9,110.5,293.9,108.7,290.8,107z"></path> </g> </g> <g> <g> <path class="st1" d="M271.5,98.8l-3,9.4c3.1,1,6.1,2.1,9,3.3l3.8-9C278.2,101.1,274.9,99.9,271.5,98.8z"></path> </g> </g> <g> <g> <path class="st1" d="M251.1,94.3l-1.3,9.8c3.2,0.4,6.3,1,9.4,1.6l2.1-9.6C258,95.4,254.6,94.8,251.1,94.3z"></path> </g> </g> <g> <g> <rect x="97.9" y="358.7" class="st1" width="9.8" height="9.8"></rect> </g> </g> <g> <g> <rect x="97.9" y="378.4" class="st1" width="9.8" height="9.8"></rect> </g> </g> <g> <g> <rect x="107.7" y="368.6" class="st1" width="9.8" height="9.8"></rect> </g> </g> <g> <g> <rect x="88" y="368.6" class="st1" width="9.8" height="9.8"></rect> </g> </g> <g> <g> <rect x="368.3" y="93.2" class="st1" width="9.8" height="9.8"></rect> </g> </g> <g> <g> <rect x="368.3" y="112.8" class="st1" width="9.8" height="9.8"></rect> </g> </g> <g> <g> <rect x="378.2" y="103" class="st1" width="9.8" height="9.8"></rect> </g> </g> <g> <g> <rect x="358.5" y="103" class="st1" width="9.8" height="9.8"></rect> </g> </g> </svg> 