<?xml version="1.0" encoding="UTF-8"?> <!-- Generator: Adobe Illustrator 21.0.2, SVG Export Plug-In . SVG Version: 6.00 Build 0) --> <svg xmlns="http://www.w3.org/2000/svg" xmlns:xlink="http://www.w3.org/1999/xlink" id="Capa_1" x="0px" y="0px" viewBox="0 0 480 480" style="enable-background:new 0 0 480 480;" xml:space="preserve"> <style type="text/css"> .st0{fill:url(#SVGID_1_);} .st1{fill:#FFFFFF;} </style> <radialGradient id="SVGID_1_" cx="240" cy="240" r="240" gradientUnits="userSpaceOnUse"> <stop offset="0" style="stop-color:#FDC63C"></stop> <stop offset="1" style="stop-color:#FDD247"></stop> </radialGradient> <path class="st0" d="M450,480H30c-16.6,0-30-13.4-30-30V30C0,13.4,13.4,0,30,0h420c16.6,0,30,13.4,30,30v420 C480,466.6,466.6,480,450,480z"></path> <g id="XMLID_806_"> <g id="XMLID_386_"> <path id="XMLID_389_" class="st1" d="M384.1,248.9c-2.7-27.2-14.9-52.9-34.2-72.2c-16.6-16.6-36.8-27.2-58.1-31.9v-15 c8.7-2.2,15.2-10,15.2-19.4c0-11-9-20-20-20h-42.4c-11,0-20,9-20,20c0,9.4,6.5,17.2,15.2,19.4v15c-21.3,4.7-41.4,15.4-58,31.9 c-3.6,3.6-6.9,7.4-10,11.3c-0.1,0-0.3,0-0.4,0h-41.9c-3.2,0-5.9,2.6-5.9,5.9c0,3.3,2.6,5.9,5.9,5.9h34.4 c-4.3,7.2-7.8,14.8-10.4,22.6h-64c-3.2,0-5.9,2.6-5.9,5.9c0,3.3,2.6,5.9,5.9,5.9H150c-1.7,7.4-2.7,15-2.9,22.6h-26 c-3.2,0-5.9,2.6-5.9,5.9c0,3.3,2.6,5.9,5.9,5.9h26.2c0.5,7.6,1.7,15.2,3.7,22.6h-38.1c-3.2,0-5.9,2.6-5.9,5.9 c0,3.3,2.6,5.9,5.9,5.9h41.9c5.8,15.3,14.8,29.6,27.1,41.9c19.4,19.4,45.1,31.5,72.3,34.2c3.9,0.4,7.8,0.6,11.7,0.6 c23,0,45.6-6.6,64.9-19.2c2.7-1.8,3.5-5.4,1.7-8.1c-1.8-2.7-5.4-3.5-8.1-1.7c-42.1,27.4-98.5,21.5-134.1-14.1 c-41.8-41.8-41.8-109.7,0-151.5c41.8-41.8,109.7-41.8,151.5,0c35.5,35.5,41.5,91.9,14.2,134c-1.8,2.7-1,6.4,1.7,8.1 c2.7,1.8,6.4,1,8.1-1.7C380.2,302.9,386.7,275.7,384.1,248.9z M236.3,110.4c0-4.5,3.7-8.2,8.2-8.2h42.4c4.5,0,8.2,3.7,8.2,8.2 s-3.7,8.2-8.2,8.2h-1.1h-40.3h-1.1C240,118.6,236.3,114.9,236.3,110.4z M251.5,142.8v-12.4h28.5v12.4 C270.5,141.6,260.9,141.6,251.5,142.8z"></path> <path id="XMLID_391_" class="st1" d="M345.7,334.7c-1.6,0-3.1,0.6-4.2,1.7c-1.1,1.1-1.7,2.6-1.7,4.2c0,1.5,0.6,3.1,1.7,4.2 c1.1,1.1,2.6,1.7,4.2,1.7c1.5,0,3.1-0.6,4.2-1.7c1.1-1.1,1.7-2.6,1.7-4.2c0-1.5-0.6-3.1-1.7-4.2 C348.7,335.4,347.2,334.7,345.7,334.7z"></path> <path id="XMLID_394_" class="st1" d="M265.8,169.5c-50.3,0-91.3,41-91.3,91.3s41,91.3,91.3,91.3s91.3-41,91.3-91.3 S316.1,169.5,265.8,169.5z M265.8,340.3c-43.8,0-79.5-35.7-79.5-79.5s35.7-79.5,79.5-79.5s79.5,35.7,79.5,79.5 S309.6,340.3,265.8,340.3z"></path> <path id="XMLID_397_" class="st1" d="M303,215.2l-29.1,29.1c-2.4-1.2-5.2-1.9-8.1-1.9c-2.9,0-5.6,0.7-8.1,1.9l-13-13 c-2.3-2.3-6-2.3-8.3,0c-2.3,2.3-2.3,6,0,8.3l13,13c-1.2,2.4-1.9,5.2-1.9,8.1c0,10.1,8.2,18.3,18.3,18.3c10.1,0,18.3-8.2,18.3-18.3 c0-2.9-0.7-5.6-1.9-8.1l28.3-28.3l0,0l0.9-0.9c2.3-2.3,2.3-6,0-8.3C309,212.9,305.3,212.9,303,215.2z M265.8,267.3 c-3.6,0-6.5-2.9-6.5-6.5c0-3.6,2.9-6.5,6.5-6.5c3.6,0,6.5,2.9,6.5,6.5C272.3,264.3,269.4,267.3,265.8,267.3z"></path> <path id="XMLID_398_" class="st1" d="M328.7,254.9h-5.5c-3.2,0-5.9,2.6-5.9,5.9c0,3.3,2.6,5.9,5.9,5.9h5.5c3.2,0,5.9-2.6,5.9-5.9 C334.6,257.6,332,254.9,328.7,254.9z"></path> <path id="XMLID_399_" class="st1" d="M208.3,254.8h-5.5c-3.2,0-5.9,2.6-5.9,5.9s2.6,5.9,5.9,5.9h5.5c3.2,0,5.9-2.6,5.9-5.9 S211.6,254.8,208.3,254.8z"></path> <path id="XMLID_400_" class="st1" d="M265.9,209.2c3.2,0,5.9-2.6,5.9-5.9v-5.5c0-3.3-2.6-5.9-5.9-5.9s-5.9,2.6-5.9,5.9v5.5 C260,206.5,262.6,209.2,265.9,209.2z"></path> <path id="XMLID_424_" class="st1" d="M265.7,312.3c-3.2,0-5.9,2.6-5.9,5.9v5.5c0,3.3,2.6,5.9,5.9,5.9s5.9-2.6,5.9-5.9v-5.5 C271.6,315,269,312.3,265.7,312.3z"></path> <path id="XMLID_425_" class="st1" d="M89.2,291.2c-1.5,0-3.1,0.6-4.2,1.7s-1.7,2.6-1.7,4.2c0,1.6,0.6,3.1,1.7,4.2 c1.1,1.1,2.6,1.7,4.2,1.7c1.5,0,3.1-0.6,4.2-1.7c1.1-1.1,1.7-2.6,1.7-4.2c0-1.5-0.6-3.1-1.7-4.2C92.3,291.8,90.8,291.2,89.2,291.2 z"></path> </g> </g> </svg> 