<?xml version="1.0" encoding="UTF-8"?> <svg xmlns="http://www.w3.org/2000/svg" id="Layer_5" viewBox="0 0 64 64"><path d="m60 33h-11v-25c0-1.302-.839-2.402-2-2.816v-1.184c0-1.654-1.346-3-3-3h-8c-1.654 0-3 1.346-3 3v1h-2v-1c0-1.654-1.346-3-3-3h-8c-1.654 0-3 1.346-3 3v1.184c-1.161.414-2 1.514-2 2.816v25h-11c-1.654 0-3 1.346-3 3v27h62v-27c0-1.654-1.346-3-3-3zm-25-29c0-.552.448-1 1-1h8c.552 0 1 .448 1 1v1h-10zm-15-1h8c.552 0 1 .448 1 1v1h-10v-1c0-.552.448-1 1-1zm-2 4h28c.552 0 1 .448 1 1v1h-30v-1c0-.552.448-1 1-1zm-1 54h-14v-25c0-.552.448-1 1-1h13zm24 0h-8v-14h5c1.654 0 3 1.346 3 3zm-10 0h-8v-11c0-1.654 1.346-3 3-3h5zm14 0h-2v-11c0-2.757-2.243-5-5-5h-12c-2.757 0-5 2.243-5 5v11h-2v-28h-2v-22h30v22h-2zm16 0h-14v-26h13c.552 0 1 .448 1 1z"></path><path d="m49 43h10v-6h-10zm8-2h-2v-2h2zm-6-2h2v2h-2z"></path><path d="m49 51h10v-6h-10zm8-2h-2v-2h2zm-6-2h2v2h-2z"></path><path d="m49 59h10v-6h-10zm8-2h-2v-2h2zm-6-2h2v2h-2z"></path><path d="m15 37h-10v6h10zm-8 2h2v2h-2zm6 2h-2v-2h2z"></path><path d="m15 45h-10v6h10zm-8 2h2v2h-2zm6 2h-2v-2h2z"></path><path d="m15 53h-10v6h10zm-8 2h2v2h-2zm6 2h-2v-2h2z"></path><path d="m32 21c1.103 0 2 .897 2 2h2c0-1.859-1.279-3.411-3-3.858v-2.142h-2v2h-3v4c0 2.206 1.794 4 4 4 1.103 0 2 .897 2 2v2h-2c-1.103 0-2-.897-2-2h-2c0 1.859 1.279 3.411 3 3.858v2.142h2v-2h3v-4c0-2.206-1.794-4-4-4-1.103 0-2-.897-2-2v-2z"></path><path d="m32 13c-7.168 0-13 5.832-13 13s5.832 13 13 13 13-5.832 13-13-5.832-13-13-13zm0 24c-6.065 0-11-4.935-11-11s4.935-11 11-11 11 4.935 11 11-4.935 11-11 11z"></path><path d="m39 25h2v2h-2z"></path><path d="m23 25h2v2h-2z"></path><path d="m31 41h2v2h-2z"></path><path d="m35 41h2v2h-2z"></path><path d="m39 41h2v2h-2z"></path><path d="m27 41h2v2h-2z"></path><path d="m23 41h2v2h-2z"></path></svg> 