<?xml version="1.0" encoding="UTF-8"?> <svg xmlns="http://www.w3.org/2000/svg" id="Layer_5" viewBox="0 0 64 64"><path d="m54.049 43.199c1.799-1.469 2.951-3.701 2.951-6.199 0-4.411-3.589-8-8-8s-8 3.589-8 8c0 2.39 1.059 4.533 2.726 6h-9.745c-.066-.155-.12-.311-.192-.466l1.493-2.465-1.069-1.069h1.787c1.654 0 3-1.346 3-3v-2c0-1.654-1.346-3-3-3h-2c-.552 0-1-.448-1-1v-1h10v-5c0-4.663-2.921-8.647-7.025-10.245 1.825-1.265 3.025-3.372 3.025-5.755 0-3.859-3.141-7-7-7s-7 3.141-7 7c0 2.383 1.2 4.49 3.025 5.755-2.673 1.041-4.837 3.093-6.025 5.689-1.188-2.596-3.352-4.649-6.025-5.689 1.825-1.265 3.025-3.372 3.025-5.755 0-3.859-3.141-7-7-7s-7 3.141-7 7c0 2.383 1.2 4.49 3.025 5.755-4.104 1.598-7.025 5.582-7.025 10.245v5h10v1c0 .552-.448 1-1 1h-2c-1.654 0-3 1.346-3 3v2c0 1.654 1.346 3 3 3h1.787l-1.069 1.069 1.492 2.465c-.154.331-.293.663-.416.995l-2.794.687v7.568l2.794.687c.123.332.262.664.416.995l-1.492 2.465 5.352 5.352 2.465-1.492c.33.154.663.293.995.416l.686 2.793h7.568l.687-2.794c.332-.123.664-.262.995-.416l2.465 1.492 5.352-5.352-1.492-2.465c.154-.33.293-.663.416-.995l2.793-.686v-1.784h1.5c.827 0 1.5.673 1.5 1.5v11.5h23v-9c0-5.365-3.863-9.838-8.951-10.801zm-11.049-6.199c0-3.309 2.691-6 6-6s6 2.691 6 6-2.691 6-6 6-6-2.691-6-6zm-16-29c0-2.757 2.243-5 5-5s5 2.243 5 5-2.243 5-5 5-5-2.243-5-5zm5 7c4.963 0 9 4.037 9 9v3h-3v-8h-2v8h-8v-8h-2v8h-3v-3c0-4.963 4.037-9 9-9zm-25-7c0-2.757 2.243-5 5-5s5 2.243 5 5-2.243 5-5 5-5-2.243-5-5zm-4 16c0-4.963 4.037-9 9-9s9 4.037 9 9v3h-3v-8h-2v8h-8v-8h-2v8h-3zm5 13c-.552 0-1-.448-1-1v-2c0-.552.448-1 1-1h2c1.654 0 3-1.346 3-3v-1h8 2 8v1c0 1.654 1.346 3 3 3h2c.552 0 1 .448 1 1v2c0 .552-.448 1-1 1h-3.787l-2.282-2.282-2.465 1.492c-.331-.154-.663-.293-.995-.416l-.687-2.794h-7.568l-.687 2.794c-.332.123-.664.262-.995.416l-2.465-1.492-2.282 2.282zm27 13.216-2.345.577-.17.534c-.182.573-.425 1.154-.723 1.727l-.259.498 1.255 2.074-3.133 3.133-2.074-1.255-.498.259c-.573.298-1.154.541-1.725.722l-.536.169-.576 2.346h-4.432l-.577-2.345-.534-.17c-.573-.182-1.154-.425-1.727-.723l-.498-.259-2.074 1.255-3.133-3.133 1.255-2.074-.259-.498c-.298-.573-.541-1.154-.722-1.725l-.169-.536-2.346-.576v-4.432l2.347-.577.169-.536c.181-.57.424-1.151.722-1.725l.259-.498-1.255-2.074 3.133-3.133 2.074 1.255.498-.259c.573-.298 1.154-.541 1.725-.722l.536-.169.576-2.346h4.432l.577 2.347.536.169c.57.181 1.151.424 1.725.722l.498.259 2.074-1.255 3.133 3.133-1.255 2.074.259.498c.009.018.017.036.026.054h-2.329c-1.663-2.475-4.46-4.001-7.46-4.001-4.963 0-9 4.037-9 9s4.037 9 9 9c4.231 0 7.858-2.953 8.775-7h4.225zm-10.611-.414c-.554.733-1.424 1.198-2.389 1.198-1.654 0-3-1.346-3-3s1.346-3 3-3c.111 0 .218.03.328.043-.206.445-.328.935-.328 1.457 0 1.539 1.005 2.835 2.389 3.302zm-.459-6.413c-.609-.254-1.266-.389-1.93-.389-2.757 0-5 2.243-5 5s2.243 5 5 5c2.013 0 3.796-1.202 4.581-3h2.125c-.868 2.916-3.571 5-6.706 5-3.859 0-7-3.141-7-7s3.141-7 7-7c1.846 0 3.597.74 4.891 2h-1.391c-.567 0-1.096.149-1.57.389zm37.07 17.611h-3v-11h-2v11h-14v-9.5c0-1.93-1.57-3.5-3.5-3.5h-13c-.827 0-1.5-.673-1.5-1.5s.673-1.5 1.5-1.5h26.5c4.963 0 9 4.037 9 9z"></path><path d="m63 20c0-3.859-3.141-7-7-7h-4c-3.859 0-7 3.141-7 7v7h11c3.859 0 7-3.141 7-7zm-16 0c0-2.757 2.243-5 5-5h4c2.757 0 5 2.243 5 5s-2.243 5-5 5h-9z"></path><path d="m49 21h2v2h-2z"></path><path d="m53 21h2v2h-2z"></path><path d="m57 21h2v2h-2z"></path><path d="m49 17h10v2h-10z"></path></svg> 