<svg id="visual" viewBox="0 0 900 600" width="900" height="600" xmlns="http://www.w3.org/2000/svg" xmlns:xlink="http://www.w3.org/1999/xlink" version="1.1"><rect x="0" y="0" width="900" height="600" fill="#001220"></rect><defs><linearGradient id="grad1_0" x1="33.3%" y1="100%" x2="100%" y2="0%"><stop offset="20%" stop-color="#001220" stop-opacity="1"></stop><stop offset="80%" stop-color="#001220" stop-opacity="1"></stop></linearGradient></defs><defs><linearGradient id="grad2_0" x1="0%" y1="100%" x2="66.7%" y2="0%"><stop offset="20%" stop-color="#001220" stop-opacity="1"></stop><stop offset="80%" stop-color="#001220" stop-opacity="1"></stop></linearGradient></defs><g transform="translate(900, 600)"><path d="M-324.5 0C-305.5 -40.4 -286.5 -80.9 -261.5 -108.3C-236.4 -135.7 -205.4 -150.2 -184.6 -184.6C-163.8 -218.9 -153.2 -273.2 -124.2 -299.8C-95.1 -326.4 -47.6 -325.5 0 -324.5L0 0Z" fill="#FBAE3C"></path></g><g transform="translate(0, 0)"><path d="M324.5 0C289.4 29.5 254.4 59.1 243.9 101C233.4 143 247.5 197.3 229.5 229.5C211.4 261.6 161.1 271.5 117.5 283.6C73.9 295.8 36.9 310.1 0 324.5L0 0Z" fill="#FBAE3C"></path></g></svg>