<svg xmlns="http://www.w3.org/2000/svg" version="1.1" xmlns:xlink="http://www.w3.org/1999/xlink" xmlns:svgjs="http://svgjs.dev/svgjs" viewBox="0 0 800 800"><defs><linearGradient x1="50%" y1="0%" x2="50%" y2="100%" id="ccchaos-grad"><stop stop-color="hsl(206, 75%, 49%)" stop-opacity="1" offset="0%"></stop><stop stop-color="hsl(331, 90%, 56%)" stop-opacity="1" offset="100%"></stop></linearGradient></defs><g stroke-width="2" stroke="url(#ccchaos-grad)" fill="none" stroke-linecap="round"><path d="M378.13 99.72C387.49 99.96 396.78 101.19 405.99 103.35 415.2 105.94 424.35 109.35 433.42 113.48 442.53 117.84 451.58 122.75 460.58 128.12 469.65 133.48 478.7 139.14 487.74 145.02 496.88 150.69 506.05 156.48 515.25 162.32 524.6 167.84 534 173.39 543.46 178.94 553.09 184.13 562.78 189.35 572.51 194.6 582.39 199.54 592.29 204.57 602.14 209.73 612.07 214.64 621.88 219.75 631.49 225.08 641.03 230.25 650.25 235.71 659.02 241.47 667.53 247.16 675.43 253.19 682.6 259.56 689.29 265.91 695.09 272.64 699.87 279.72 704 286.8 707 294.25 708.8 302.05 709.87 309.85 709.73 317.99 708.38 326.44 706.39 334.89 703.3 343.65 699.18 352.7 694.7 361.74 689.43 371.06 683.5 380.64 677.64 390.23 671.55 399.86 665.41 409.53 659.73 419.2 654.22 428.93 648.97 438.71 644.43 448.52 640.23 458.41 636.4 468.37 633.32 478.41 630.57 488.55 628.11 498.78 626.28 509.12 624.61 519.57 623 530.1 621.83 540.74 620.56 551.44 619.11 562.16 617.86 572.92 616.26 583.62 614.26 594.19 612.28 604.65 609.77 614.84 606.7 624.62 603.51 634.09 599.71 642.98 595.3 651.14 590.7 658.74 585.48 665.42 579.66 671.04 573.66 675.91 567.08 679.59 559.98 682.02 552.72 683.66 544.98 684.06 536.8 683.25 528.51 681.84 519.83 679.44 510.82 676.16 501.74 672.76 492.36 668.86 482.73 664.69 473.07 661.01 463.18 657.49 453.1 654.34 443.02 652.26 432.77 650.86 422.37 650.27 411.97 651.01 401.67 652.55 391.5 654.77 381.33 658.03 371.28 661.64 361.37 665.39 351.45 669.61 341.66 673.52 332.01 676.92 322.35 680.17 312.82 682.53 303.44 683.87 294.04 684.6 284.79 684.1 275.7 682.36 266.6 679.82 257.66 676.02 248.92 671.04 240.18 665.31 231.64 658.53 223.34 650.84 215.06 642.6 207.04 633.64 199.32 624.1 191.65 614.27 184.3 604.04 177.31 593.55 170.42 582.96 163.92 572.25 157.84 561.49 151.9 550.78 146.41 540.08 141.41 529.47 136.57 518.96 132.22 508.53 128.42 498.22 124.78 488.01 121.67 477.9 119.13 467.89 116.73 457.96 114.89 448.09 113.62 438.29 112.47 428.54 111.87 418.83 111.83 409.17 111.86 399.52 112.42 389.89 113.52 380.31 114.64 370.73 116.23 361.41 118.26 352.37 120.24 343.32 122.63 334.56 125.39 326.09 128.04 317.63 131.04 309.48 134.35 301.67 137.52 293.87 140.99 286.41 144.73 279.32 148.31 272.23 152.17 265.5 156.27 259.14 160.22 252.77 164.43 246.74 168.88 241.06 173.2 235.31 177.79 229.87 182.64 224.71 187.38 219.41 192.41 214.33 197.73 209.45 202.97 204.34 208.51 199.35 214.36 194.46 220.17 189.25 226.3 184.08 232.73 178.94 239.16 173.45 245.9 167.95 252.95 162.48 260 156.68 267.35 150.93 274.99 145.29 282.64 139.44 290.56 133.79 298.74 128.44 306.93 123.07 315.36 118.15 324 113.77 332.65 109.61 341.5 106.16 350.53 103.52 359.56 101.31 368.77 100.02 378.12 99.72" stroke-dasharray="8 8" transform="rotate(0, 400, 400)" opacity="0.79"></path><path d="M379.39 110.31C388.41 110.53 397.4 111.71 406.34 113.77 415.29 116.26 424.21 119.53 433.08 123.5 441.98 127.71 450.86 132.47 459.72 137.68 468.63 142.92 477.56 148.48 486.48 154.26 495.5 159.89 504.56 165.65 513.65 171.49 522.86 177.04 532.12 182.64 541.43 188.25 550.86 193.53 560.33 198.84 569.81 204.18 579.39 209.21 588.95 214.32 598.42 219.52 607.92 224.48 617.26 229.6 626.36 234.9 635.35 240.03 643.98 245.4 652.15 251.03 660.03 256.56 667.31 262.4 673.86 268.54 679.94 274.64 685.17 281.08 689.43 287.85 693.08 294.61 695.68 301.71 697.17 309.14 697.99 316.56 697.7 324.32 696.29 332.4 694.32 340.47 691.33 348.86 687.39 357.55 683.14 366.23 678.15 375.21 672.54 384.48 666.99 393.75 661.2 403.11 655.34 412.52 649.89 421.95 644.55 431.46 639.42 441.04 634.91 450.66 630.7 460.36 626.79 470.15 623.57 480 620.63 489.96 617.94 499.99 615.85 510.09 613.9 520.29 612.03 530.53 610.58 540.82 609.07 551.14 607.41 561.42 605.98 571.67 604.26 581.81 602.21 591.74 600.2 601.52 597.75 610.96 594.81 619.95 591.8 628.59 588.24 636.62 584.12 643.89 579.87 650.62 575.05 656.45 569.67 661.26 564.14 665.38 558.06 668.4 551.48 670.26 544.77 671.42 537.58 671.47 529.96 670.44 522.24 668.93 514.12 666.54 505.65 663.39 497.13 660.19 488.29 656.57 479.17 652.73 470.02 649.38 460.63 646.19 451.02 643.34 441.41 641.47 431.59 640.22 421.61 639.68 411.63 640.37 401.72 641.75 391.9 643.74 382.09 646.71 372.37 649.99 362.77 653.41 353.17 657.3 343.67 660.94 334.3 664.15 324.92 667.28 315.66 669.63 306.54 671.09 297.41 672.05 288.42 671.92 279.59 670.66 270.75 668.7 262.08 665.58 253.61 661.35 245.14 656.44 236.87 650.51 228.85 643.69 220.85 636.33 213.12 628.22 205.67 619.51 198.29 610.47 191.23 600.98 184.52 591.16 177.92 581.2 171.69 571.04 165.88 560.77 160.21 550.49 154.97 540.17 150.22 529.88 145.61 519.65 141.49 509.47 137.89 499.38 134.45 489.37 131.53 479.44 129.15 469.61 126.92 459.84 125.22 450.15 124.08 440.55 123.05 430.99 122.55 421.5 122.59 412.08 122.71 402.68 123.34 393.33 124.49 384.07 125.65 374.8 127.27 365.82 129.31 357.14 131.3 348.46 133.68 340.07 136.41 331.99 139.04 323.91 142 316.14 145.26 308.71 148.39 301.28 151.8 294.17 155.46 287.42 158.98 280.64 162.75 274.21 166.76 268.11 170.62 261.97 174.72 256.15 179.06 250.63 183.26 245.02 187.72 239.66 192.42 234.56 197.01 229.29 201.87 224.21 206.99 219.28 212.03 214.12 217.36 209.06 222.97 204.08 228.53 198.79 234.39 193.53 240.53 188.3 246.66 182.74 253.08 177.19 259.8 171.68 266.5 165.88 273.5 160.16 280.77 154.56 288.04 148.79 295.58 143.25 303.37 138.02 311.16 132.8 319.2 128.03 327.45 123.79 335.71 119.79 344.18 116.48 352.84 113.94 361.5 111.83 370.36 110.59 379.38 110.31" stroke-dasharray="8 9" transform="rotate(4.04, 400, 400)" opacity="0.98"></path><path d="M381.27 120.9C389.98 121.11 398.68 122.23 407.35 124.2 416.04 126.57 424.71 129.7 433.37 133.51 442.06 137.56 450.75 142.15 459.43 147.2 468.18 152.3 476.94 157.73 485.71 163.4 494.57 168.95 503.47 174.66 512.39 180.47 521.41 186.04 530.48 191.66 539.56 197.31 548.74 202.66 557.93 208.05 567.1 213.46 576.33 218.59 585.5 223.78 594.54 229.04 603.57 234.06 612.41 239.21 620.96 244.51 629.38 249.64 637.42 254.96 644.98 260.51 652.24 265.94 658.91 271.64 664.86 277.61 670.37 283.52 675.05 289.73 678.82 296.24 682.04 302.73 684.27 309.53 685.46 316.66 686.07 323.76 685.65 331.19 684.2 338.93 682.25 346.67 679.37 354.71 675.62 363.07 671.6 371.42 666.88 380.08 661.58 389.04 656.33 398 650.84 407.07 645.26 416.22 640.03 425.38 634.88 434.64 629.88 443.99 625.44 453.36 621.22 462.83 617.27 472.38 613.93 481.98 610.83 491.66 607.96 501.41 605.63 511.2 603.43 521.05 601.31 530.9 599.6 540.77 597.85 550.61 595.99 560.35 594.37 570.03 592.51 579.53 590.37 588.76 588.32 597.81 585.88 606.47 583.02 614.63 580.13 622.44 576.75 629.61 572.88 636.03 568.92 641.93 564.43 646.95 559.43 651.01 554.31 654.46 548.68 656.87 542.57 658.23 536.36 659 529.68 658.77 522.57 657.57 515.38 656 507.8 653.66 499.86 650.67 491.87 647.68 483.55 644.35 474.94 640.84 466.3 637.81 457.39 634.93 448.26 632.36 439.11 630.7 429.75 629.59 420.2 629.1 410.64 629.72 401.13 630.96 391.7 632.74 382.26 635.42 372.89 638.39 363.62 641.49 354.35 645.06 345.17 648.42 336.1 651.42 327.03 654.4 318.07 656.72 309.24 658.24 300.4 659.38 291.7 659.54 283.16 658.69 274.62 657.24 266.24 654.73 258.05 651.19 249.88 647.03 241.91 641.91 234.18 635.92 226.5 629.41 219.06 622.16 211.92 614.29 204.85 606.06 198.08 597.34 191.67 588.25 185.37 578.98 179.43 569.44 173.9 559.74 168.5 549.99 163.54 540.14 159.03 530.27 154.67 520.41 150.78 510.57 147.39 500.79 144.16 491.05 141.42 481.38 139.21 471.8 137.14 462.26 135.59 452.8 134.57 443.44 133.65 434.12 133.26 424.87 133.38 415.71 133.57 406.58 134.26 397.52 135.45 388.56 136.65 379.61 138.29 370.95 140.33 362.61 142.32 354.25 144.69 346.2 147.39 338.47 150 330.73 152.93 323.3 156.13 316.2 159.21 309.07 162.56 302.27 166.16 295.79 169.61 289.28 173.31 283.07 177.23 277.18 181 271.22 185.01 265.54 189.24 260.13 193.33 254.6 197.67 249.3 202.23 244.21 206.68 238.94 211.38 233.83 216.33 228.85 221.19 223.63 226.32 218.49 231.71 213.41 237.04 208.05 242.65 202.71 248.54 197.4 254.39 191.8 260.52 186.22 266.92 180.7 273.31 174.92 279.98 169.25 286.9 163.72 293.82 158.06 301.01 152.64 308.44 147.55 315.86 142.49 323.53 137.88 331.42 133.8 339.31 129.96 347.42 126.79 355.74 124.36 364.04 122.34 372.56 121.17 381.26 120.9" stroke-dasharray="1 3" transform="rotate(8.08, 400, 400)" opacity="0.91"></path><path d="M383.73 131.48C392.12 131.68 400.53 132.74 408.93 134.62 417.35 136.87 425.78 139.86 434.21 143.5 442.67 147.38 451.15 151.8 459.64 156.67 468.17 161.61 476.74 166.89 485.32 172.44 493.98 177.89 502.66 183.52 511.37 189.27 520.15 194.82 528.96 200.45 537.77 206.12 546.64 211.52 555.5 216.97 564.3 222.44 573.13 227.65 581.87 232.91 590.44 238.24 598.97 243.33 607.27 248.53 615.27 253.86 623.11 259 630.55 264.31 637.5 269.81 644.16 275.19 650.22 280.79 655.6 286.63 660.56 292.39 664.73 298.43 668.05 304.74 670.86 311.01 672.75 317.57 673.69 324.43 674.11 331.26 673.58 338.41 672.1 345.85 670.19 353.28 667.43 361.02 663.86 369.06 660.06 377.1 655.62 385.45 650.62 394.1 645.66 402.76 640.47 411.53 635.16 420.39 630.17 429.26 625.2 438.24 620.35 447.31 615.99 456.39 611.8 465.57 607.83 474.82 604.4 484.09 601.18 493.44 598.14 502.82 595.61 512.22 593.19 521.63 590.85 531.02 588.89 540.38 586.91 549.66 584.85 558.8 583.04 567.83 581.03 576.64 578.79 585.14 576.66 593.42 574.2 601.28 571.38 608.62 568.57 615.6 565.33 621.94 561.65 627.54 555.8 634.8 541.64 644.1 533.34 645.97 527.56 646.41 521.35 645.96 514.73 644.66 508.03 643.07 500.94 640.81 493.51 638 486.02 635.24 478.2 632.2 470.09 629.01 461.95 626.29 453.53 623.71 444.86 621.41 436.19 619.94 427.28 618.95 418.17 618.51 409.06 619.08 399.96 620.19 390.92 621.77 381.87 624.18 372.88 626.84 363.96 629.63 355.05 632.88 346.21 635.96 337.47 638.74 328.74 641.55 320.1 643.79 311.58 645.35 303.07 646.6 294.68 646.99 286.45 646.48 278.23 645.47 270.16 643.5 262.29 640.58 254.44 637.11 246.8 632.73 239.38 627.53 232.02 621.84 224.91 615.42 218.08 608.37 211.34 600.97 204.89 593.05 198.79 584.71 192.79 576.17 187.16 567.32 181.92 558.26 176.81 549.09 172.11 539.79 167.86 530.42 163.75 521.03 160.1 511.61 156.92 502.21 153.9 492.83 151.35 483.49 149.31 474.22 147.4 464.98 145.99 455.81 145.09 446.73 144.29 437.68 143.99 428.71 144.19 419.85 144.45 411 145.19 402.23 146.41 393.59 147.64 384.94 149.29 376.59 151.33 368.56 153.32 360.52 155.67 352.79 158.34 345.36 160.92 337.92 163.81 330.78 166.96 323.96 169.99 317.1 173.29 310.54 176.81 304.29 180.2 297.99 183.83 291.96 187.66 286.22 191.36 280.39 195.28 274.81 199.41 269.46 203.4 263.99 207.62 258.71 212.06 253.6 216.38 248.31 220.94 243.15 225.73 238.1 230.42 232.82 235.37 227.6 240.56 222.44 245.69 217.01 251.07 211.62 256.72 206.26 262.31 200.63 268.18 195.05 274.3 189.54 280.4 183.81 286.76 178.21 293.37 172.77 299.97 167.24 306.82 161.97 313.91 157.02 321 152.14 328.32 147.7 335.87 143.79 343.41 140.12 351.18 137.09 359.16 134.78 367.13 132.86 375.32 131.74 383.72 131.48" stroke-dasharray="11 1" transform="rotate(12.12, 400, 400)" opacity="0.78"></path><path d="M386.67 142.07C394.76 142.26 402.88 143.26 411.01 145.03 419.16 147.17 427.33 150.01 435.51 153.48 443.73 157.18 451.97 161.42 460.23 166.1 468.53 170.87 476.86 175.98 485.21 181.37 493.62 186.7 502.05 192.23 510.49 197.9 518.98 203.41 527.49 209 535.96 214.66 544.48 220.09 552.96 225.57 561.34 231.08 569.73 236.36 578 241.69 586.07 247.07 594.07 252.23 601.82 257.49 609.24 262.84 616.5 268.02 623.35 273.34 629.7 278.82 635.77 284.16 641.26 289.7 646.09 295.46 650.53 301.12 654.22 307.02 657.12 313.17 659.56 319.26 661.15 325.63 661.86 332.27 662.11 338.87 661.49 345.76 660 352.94 658.15 360.1 655.51 367.55 652.13 375.31 648.54 383.05 644.36 391.09 639.66 399.44 634.99 407.79 630.09 416.25 625.06 424.8 620.29 433.36 615.53 442.02 610.83 450.76 606.56 459.51 602.43 468.34 598.46 477.22 594.98 486.12 591.66 495.06 588.49 504 585.78 512.93 583.18 521.85 580.64 530.69 578.47 539.48 576.27 548.15 574.02 556.63 572.02 564.98 569.86 573.06 567.51 580.8 565.28 588.3 562.78 595.36 559.96 601.89 555.61 610.84 544.95 624.64 538.56 629.22 531.64 632.23 515.6 633.39 506.52 631.73 500.28 630.16 493.66 628.02 486.69 625.4 479.68 622.88 472.35 620.12 464.71 617.24 457.05 614.82 449.11 612.53 440.91 610.47 432.7 609.19 424.25 608.32 415.59 607.92 406.92 608.44 398.26 609.42 389.62 610.82 380.98 612.97 372.38 615.35 363.84 617.84 355.3 620.78 346.83 623.58 338.44 626.12 330.06 628.75 321.77 630.88 313.6 632.42 305.43 633.75 297.39 634.31 289.49 634.08 281.61 633.44 273.89 631.92 266.35 629.55 258.85 626.7 251.55 623.01 244.48 618.53 237.46 613.62 230.69 607.99 224.19 601.74 217.78 595.15 211.67 588.03 205.89 580.47 200.21 572.68 194.89 564.55 189.95 556.16 185.13 547.65 180.71 538.96 176.72 530.15 172.87 521.29 169.45 512.36 166.5 503.42 163.68 494.47 161.33 485.53 159.45 476.64 157.7 467.76 156.43 458.93 155.64 450.18 154.96 441.45 154.74 432.8 155.01 424.24 155.34 415.7 156.12 407.25 157.37 398.91 158.63 390.57 160.29 382.53 162.31 374.79 164.3 367.05 166.62 359.6 169.25 352.44 171.8 345.27 174.64 338.39 177.74 331.8 180.72 325.17 183.96 318.81 187.42 312.74 190.74 306.6 194.29 300.72 198.05 295.07 201.67 289.35 205.5 283.83 209.54 278.51 213.44 273.06 217.55 267.78 221.87 262.64 226.08 257.32 230.5 252.11 235.14 246.99 239.69 241.65 244.47 236.37 249.48 231.14 254.42 225.67 259.6 220.23 265.02 214.84 270.39 209.23 276.01 203.66 281.88 198.19 287.71 192.55 293.79 187.04 300.11 181.72 306.41 176.34 312.95 171.23 319.74 166.45 326.5 161.76 333.5 157.5 340.73 153.77 347.95 150.27 355.39 147.39 363.05 145.2 370.7 143.37 378.58 142.31 386.66 142.07" stroke-dasharray="4 4" transform="rotate(16.16, 400, 400)" opacity="0.60"></path><path d="M390.03 152.66C397.81 152.83 405.63 153.78 413.48 155.45 421.35 157.47 429.25 160.16 437.17 163.45 445.11 166.97 453.09 171.01 461.09 175.49 469.12 180.07 477.18 185 485.26 190.21 493.37 195.4 501.51 200.8 509.63 206.36 517.79 211.79 525.94 217.33 534.04 222.94 542.16 228.37 550.22 233.85 558.15 239.38 566.07 244.7 573.83 250.08 581.38 255.5 588.84 260.72 596.02 266.02 602.87 271.41 609.54 276.62 615.8 281.96 621.58 287.43 627.08 292.77 632.02 298.28 636.32 303.96 640.28 309.55 643.53 315.35 646.04 321.37 648.14 327.33 649.46 333.53 649.97 339.98 650.07 346.38 649.39 353.05 647.91 359.99 646.11 366.9 643.6 374.1 640.4 381.56 637.04 389.02 633.11 396.77 628.7 404.8 624.32 412.83 619.7 420.97 614.93 429.18 610.4 437.41 605.84 445.71 601.32 454.08 597.16 462.46 593.1 470.89 589.16 479.35 585.65 487.81 582.26 496.29 579 504.73 576.15 513.15 573.38 521.5 570.68 529.75 568.31 537.92 565.93 545.94 563.5 553.72 561.32 561.36 559.01 568.7 556.53 575.66 554.2 582.4 551.64 588.68 548.81 594.42 544.49 602.24 534.19 614 528.11 617.73 521.59 620.09 506.56 620.52 498.06 618.79 492.23 617.28 486.04 615.28 479.51 612.87 472.95 610.59 466.07 608.11 458.9 605.54 451.7 603.4 444.22 601.38 436.48 599.56 428.74 598.45 420.75 597.69 412.53 597.33 404.32 597.8 396.09 598.67 387.87 599.89 379.66 601.8 371.47 603.91 363.32 606.11 355.18 608.75 347.09 611.27 339.08 613.57 331.08 616 323.16 618 315.35 619.49 307.56 620.84 299.88 621.52 292.34 621.5 284.83 621.16 277.47 620.03 270.29 618.13 263.16 615.83 256.22 612.75 249.5 608.95 242.84 604.74 236.43 599.87 230.28 594.38 224.22 588.57 218.45 582.23 213 575.44 207.66 568.42 202.65 561.03 198.01 553.35 193.49 545.53 189.36 537.48 185.63 529.28 182.04 521.01 178.86 512.64 176.12 504.2 173.51 495.75 171.35 487.27 169.64 478.8 168.05 470.34 166.91 461.91 166.24 453.53 165.66 445.16 165.53 436.86 165.86 428.64 166.24 420.43 167.07 412.3 168.33 404.28 169.6 396.25 171.26 388.51 173.27 381.06 175.24 373.6 177.54 366.41 180.13 359.51 182.64 352.58 185.43 345.92 188.47 339.53 191.4 333.1 194.57 326.91 197.96 320.97 201.23 314.97 204.7 309.19 208.38 303.63 211.93 297.97 215.68 292.49 219.62 287.18 223.43 281.75 227.45 276.44 231.66 271.27 235.75 265.92 240.06 260.66 244.56 255.48 248.97 250.1 253.6 244.77 258.44 239.49 263.21 234 268.21 228.56 273.42 223.17 278.59 217.59 283.98 212.08 289.61 206.68 295.19 201.14 301.02 195.76 307.07 190.58 313.09 185.37 319.35 180.44 325.84 175.85 332.31 171.35 339.01 167.29 345.93 163.73 352.84 160.41 359.97 157.68 367.32 155.61 374.67 153.89 382.23 152.89 390.02 152.66" stroke-dasharray="5 10" transform="rotate(20.200000000000003, 400, 400)" opacity="0.15"></path><path d="M393.68 163.25C401.16 163.4 408.69 164.29 416.25 165.87 423.81 167.77 431.42 170.3 439.06 173.4 446.71 176.74 454.4 180.57 462.11 184.84 469.84 189.22 477.6 193.95 485.35 198.97 493.14 203.99 500.93 209.23 508.7 214.65 516.49 219.97 524.24 225.42 531.93 230.96 539.62 236.35 547.21 241.81 554.66 247.33 562.08 252.66 569.32 258.05 576.33 263.49 583.23 268.75 589.86 274.09 596.13 279.49 602.23 284.74 607.92 290.1 613.13 295.56 618.09 300.9 622.51 306.38 626.33 312.01 629.82 317.55 632.67 323.27 634.82 329.18 636.62 335.03 637.69 341.08 638.03 347.36 638.01 353.59 637.28 360.07 635.82 366.78 634.09 373.47 631.7 380.41 628.7 387.6 625.54 394.78 621.87 402.23 617.74 409.94 613.63 417.65 609.29 425.44 604.8 433.3 600.5 441.16 596.15 449.08 591.81 457.04 587.78 465.01 583.81 473 579.92 480.99 576.41 488.97 572.99 496.93 569.66 504.82 566.7 512.68 563.81 520.44 560.96 528.05 558.43 535.58 555.88 542.91 553.3 549.98 550.95 556.9 548.5 563.5 545.91 569.71 542.15 578.46 533.65 593 528.77 598.54 523.61 602.92 511.6 607.73 504.72 608.18 497.44 607.61 481.1 603.53 472.09 600.42 465.95 598.39 459.5 596.18 452.76 593.9 446 592.04 438.97 590.27 431.69 588.68 424.39 587.72 416.86 587.06 409.1 586.75 401.34 587.17 393.55 587.93 385.76 588.99 377.98 590.67 370.21 592.52 362.47 594.45 354.74 596.79 347.06 599.04 339.44 601.11 331.84 603.32 324.32 605.17 316.89 606.58 309.49 607.91 302.2 608.66 295.04 608.8 287.92 608.68 280.95 607.88 274.14 606.38 267.39 604.55 260.83 602.02 254.48 598.81 248.2 595.25 242.16 591.06 236.37 586.29 230.67 581.22 225.25 575.63 220.14 569.59 215.14 563.33 210.45 556.68 206.12 549.71 201.91 542.6 198.06 535.23 194.6 527.67 191.26 520.03 188.32 512.25 185.8 504.37 183.4 496.46 181.42 488.49 179.88 480.5 178.44 472.5 177.43 464.5 176.87 456.54 176.39 448.57 176.34 440.65 176.72 432.79 177.16 424.94 178.02 417.15 179.29 409.45 180.58 401.75 182.23 394.31 184.21 387.13 186.16 379.94 188.42 373.01 190.96 366.34 193.43 359.64 196.17 353.18 199.14 346.96 202.02 340.7 205.12 334.66 208.44 328.83 211.64 322.95 215.04 317.25 218.64 311.74 222.11 306.13 225.78 300.68 229.63 295.38 233.36 289.95 237.28 284.63 241.38 279.42 245.37 274.05 249.56 268.76 253.94 263.53 258.22 258.13 262.71 252.78 267.4 247.49 272.01 242.01 276.83 236.59 281.86 231.23 286.83 225.72 292.02 220.3 297.42 215 302.79 209.6 308.37 204.37 314.17 199.35 319.94 194.33 325.94 189.59 332.15 185.2 338.34 180.92 344.76 177.06 351.39 173.69 358 170.55 364.84 167.97 371.89 166.03 378.93 164.4 386.19 163.46 393.67 163.25" stroke-dasharray="0 7" transform="rotate(24.24, 400, 400)" opacity="0.21"></path><path d="M397.53 173.83C404.7 173.98 411.92 174.81 419.17 176.28 426.43 178.06 433.74 180.44 441.06 183.36 448.4 186.5 455.77 190.12 463.16 194.17 470.56 198.33 477.97 202.85 485.38 207.65 492.81 212.48 500.22 217.54 507.59 222.79 514.97 227.98 522.3 233.3 529.54 238.74 536.76 244.05 543.87 249.45 550.82 254.91 557.72 260.23 564.42 265.6 570.88 271.03 577.24 276.31 583.3 281.65 589.01 287.06 594.55 292.33 599.68 297.68 604.36 303.13 608.8 308.47 612.73 313.92 616.1 319.5 619.17 325 621.65 330.65 623.48 336.45 625 342.2 625.86 348.13 626.05 354.25 625.93 360.33 625.16 366.61 623.74 373.11 622.08 379.58 619.83 386.27 617.01 393.19 614.06 400.1 610.64 407.24 606.77 414.62 602.94 421.99 598.87 429.42 594.65 436.89 590.59 444.37 586.45 451.88 582.29 459.4 578.41 466.92 574.54 474.44 570.74 481.92 567.25 489.39 563.82 496.8 560.47 504.11 557.43 511.38 554.44 518.52 551.48 525.47 548.81 532.34 546.13 538.98 543.41 545.34 540.92 551.56 538.33 557.43 535.64 562.92 531.74 570.6 523.14 583.14 518.32 587.8 513.28 591.43 501.75 595.19 495.22 595.35 488.34 594.68 472.99 590.86 464.54 588.06 458.78 586.27 452.73 584.34 446.41 582.34 440.08 580.72 433.48 579.19 426.63 577.81 419.78 577 412.69 576.44 405.38 576.16 398.08 576.54 390.73 577.2 383.38 578.1 376.04 579.57 368.7 581.18 361.39 582.86 354.09 584.92 346.82 586.9 339.62 588.72 332.44 590.71 325.32 592.39 318.3 593.7 311.31 594.97 304.42 595.75 297.67 595.99 290.95 596.05 284.37 595.5 277.97 594.34 271.61 592.9 265.44 590.83 259.48 588.15 253.59 585.18 247.92 581.61 242.5 577.49 237.17 573.12 232.11 568.23 227.35 562.91 222.68 557.37 218.32 551.44 214.3 545.18 210.39 538.78 206.83 532.1 203.63 525.2 200.56 518.21 197.85 511.04 195.55 503.76 193.35 496.42 191.55 488.99 190.17 481.51 188.88 474.02 188 466.49 187.54 458.97 187.15 451.44 187.17 443.93 187.61 436.45 188.09 428.98 188.97 421.55 190.25 414.18 191.54 406.82 193.18 399.68 195.13 392.78 197.05 385.87 199.27 379.18 201.76 372.72 204.18 366.24 206.86 359.97 209.76 353.91 212.58 347.81 215.61 341.9 218.85 336.18 221.98 330.39 225.31 324.77 228.82 319.3 232.22 313.75 235.81 308.33 239.56 303.03 243.21 297.61 247.03 292.29 251.03 287.06 254.93 281.68 259 276.38 263.26 271.14 267.42 265.75 271.78 260.41 276.31 255.13 280.78 249.7 285.44 244.33 290.29 239.04 295.08 233.64 300.08 228.33 305.28 223.16 310.43 217.93 315.8 212.87 321.36 208.05 326.89 203.23 332.64 198.71 338.59 194.53 344.52 190.47 350.66 186.82 357.01 183.64 363.34 180.68 369.89 178.26 376.64 176.44 383.39 174.91 390.35 174.03 397.52 173.83" stroke-dasharray="3 11" transform="rotate(28.28, 400, 400)" opacity="0.75"></path><path d="M401.45 184.42C408.31 184.55 415.21 185.32 422.15 186.7 429.09 188.35 436.06 190.57 443.06 193.31 450.06 196.25 457.09 199.66 464.12 203.47 471.17 207.41 478.21 211.69 485.23 216.27 492.27 220.89 499.27 225.74 506.22 230.79 513.16 235.81 520.03 240.98 526.79 246.27 533.53 251.47 540.14 256.77 546.57 262.15 552.95 267.41 559.11 272.73 565.02 278.11 570.83 283.37 576.34 288.69 581.5 294.07 586.5 299.33 591.11 304.67 595.28 310.08 599.23 315.4 602.7 320.82 605.65 326.34 608.34 331.78 610.48 337.35 612.02 343.06 613.29 348.71 613.97 354.51 614.03 360.47 613.84 366.4 613.05 372.5 611.67 378.78 610.09 385.04 607.97 391.49 605.33 398.13 602.59 404.76 599.41 411.59 595.81 418.62 592.25 425.64 588.45 432.7 584.48 439.77 580.66 446.84 576.74 453.91 572.78 460.97 569.05 468.02 565.31 475.03 561.6 481.99 558.16 488.91 554.76 495.76 551.4 502.47 548.32 509.13 545.27 515.64 542.24 521.94 539.46 528.15 536.67 534.11 533.85 539.78 529.88 547.91 521.71 561.99 517.38 567.78 508.14 576.17 492.14 582.51 485.91 582.47 479.39 581.76 464.91 578.27 456.98 575.8 451.57 574.24 445.91 572.57 439.98 570.84 434.05 569.47 427.86 568.16 421.44 566.97 415.02 566.29 408.37 565.82 401.51 565.57 394.65 565.91 387.75 566.47 380.84 567.24 373.94 568.51 367.04 569.89 360.16 571.33 353.29 573.12 346.46 574.85 339.68 576.44 332.93 578.2 326.24 579.7 319.64 580.88 313.07 582.07 306.6 582.83 300.26 583.13 293.96 583.3 287.8 582.94 281.8 582.05 275.85 580.94 270.09 579.26 264.52 577.04 259.02 574.57 253.74 571.55 248.7 568.03 243.75 564.28 239.05 560.05 234.63 555.39 230.3 550.54 226.28 545.31 222.57 539.73 218.96 534.02 215.68 528.02 212.75 521.78 209.92 515.44 207.45 508.91 205.36 502.22 203.36 495.48 201.74 488.62 200.51 481.68 199.37 474.71 198.61 467.68 198.24 460.62 197.95 453.56 198.04 446.48 198.52 439.41 199.04 432.34 199.94 425.28 201.21 418.26 202.5 411.24 204.11 404.41 206.03 397.79 207.91 391.16 210.08 384.72 212.51 378.47 214.87 372.21 217.48 366.12 220.31 360.21 223.06 354.27 226.03 348.49 229.18 342.86 232.24 337.18 235.49 331.63 238.91 326.22 242.23 320.72 245.72 315.34 249.38 310.05 252.94 304.67 256.67 299.36 260.56 294.14 264.36 288.79 268.33 283.51 272.46 278.29 276.51 272.94 280.74 267.64 285.13 262.42 289.46 257.07 293.97 251.79 298.65 246.62 303.28 241.34 308.1 236.19 313.1 231.19 318.05 226.14 323.21 221.29 328.55 216.67 333.86 212.09 339.36 207.79 345.06 203.83 350.74 200 356.62 196.56 362.69 193.58 368.75 190.81 375.01 188.55 381.47 186.85 387.93 185.43 394.58 184.6 401.44 184.42" stroke-dasharray="5 4" transform="rotate(32.32, 400, 400)" opacity="0.57"></path><path d="M405.33 195.01C411.87 195.13 418.44 195.84 425.04 197.12 431.65 198.65 438.28 200.71 444.92 203.26 451.57 206 458.23 209.19 464.88 212.76 471.54 216.46 478.19 220.5 484.8 224.83 491.42 229.22 497.99 233.84 504.48 238.67 510.97 243.49 517.36 248.47 523.63 253.59 529.87 258.64 535.97 263.8 541.88 269.05 547.72 274.21 553.35 279.45 558.72 284.74 563.99 289.94 568.96 295.2 573.6 300.52 578.08 305.73 582.19 311.02 585.88 316.38 589.38 321.65 592.43 327.01 594.99 332.45 598.25 340.57 601.77 357.28 601.99 365.91 601.73 371.67 600.94 377.59 599.61 383.64 598.12 389.68 596.14 395.88 593.68 402.23 591.14 408.58 588.19 415.09 584.85 421.75 581.54 428.42 578 435.08 574.3 441.73 570.71 448.38 567.02 455 563.26 461.57 559.7 468.14 556.1 474.64 552.5 481.04 549.14 487.42 545.79 493.69 542.46 499.8 539.37 505.86 536.29 511.74 533.21 517.39 528.93 525.62 520.48 540.44 516.23 546.88 512.08 552.67 503.28 561.8 498.52 565.03 488.24 568.61 470.66 568.89 463.96 567.46 456.99 565.78 441.79 561.6 433.59 559.41 428.03 558.26 422.24 557.16 416.24 556.15 410.22 555.59 404 555.2 397.58 554.98 391.17 555.28 384.71 555.76 378.25 556.4 371.79 557.49 365.33 558.66 358.89 559.87 352.47 561.41 346.07 562.88 339.73 564.24 333.42 565.78 327.16 567.09 321 568.14 314.86 569.21 308.82 569.92 302.91 570.24 294.16 570.37 277.5 568.03 269.66 565.51 262.11 562.21 248.26 552.94 242.02 547.07 238.04 542.86 234.34 538.27 230.93 533.35 227.63 528.3 224.63 522.95 221.96 517.35 219.38 511.66 217.14 505.75 215.25 499.66 213.45 493.53 212 487.24 210.92 480.84 209.91 474.42 209.27 467.9 208.99 461.33 208.78 454.75 208.93 448.12 209.45 441.47 210 434.82 210.91 428.15 212.17 421.49 213.45 414.83 215.03 408.32 216.9 401.98 218.75 395.64 220.86 389.45 223.21 383.43 225.52 377.38 228.06 371.49 230.8 365.74 233.48 359.96 236.36 354.31 239.42 348.8 242.4 343.23 245.56 337.77 248.89 332.42 252.13 327 255.53 321.67 259.09 316.43 262.56 311.1 266.19 305.85 269.98 300.66 273.67 295.37 277.53 290.14 281.54 284.98 285.48 279.71 289.57 274.5 293.83 269.37 298.02 264.14 302.38 259 306.9 253.96 311.37 248.86 316.01 243.89 320.82 239.08 325.59 234.26 330.54 229.63 335.66 225.24 340.75 220.9 346.03 216.84 351.49 213.12 356.92 209.52 362.54 206.31 368.34 203.53 374.13 200.94 380.11 198.84 386.28 197.26 392.43 195.94 398.78 195.18 405.32 195.01" stroke-dasharray="0 7" transform="rotate(36.36, 400, 400)" opacity="0.56"></path><path d="M409.05 205.6C415.25 205.7 421.49 206.36 427.74 207.54 433.99 208.95 440.26 210.85 446.53 213.21 459.09 218.47 471.64 225.3 484 233.35 496.34 241.66 508.43 250.87 520.01 260.7 531.43 270.39 542.19 280.52 551.98 290.93 561.36 301.02 569.53 311.4 576.2 322 582.18 332.31 586.45 342.95 588.79 353.9 590.34 364.68 589.95 375.91 587.57 387.57 586.17 393.38 584.32 399.31 582.04 405.36 579.7 411.41 576.97 417.59 573.89 423.88 570.83 430.17 567.55 436.44 564.1 442.65 560.75 448.86 557.28 455.02 553.73 461.1 547.14 473.23 540.38 484.96 533.63 496.06 527.7 506.94 521.71 516.98 515.64 525.88 510.24 534.34 504.53 541.42 498.43 546.9 492.7 551.77 486.33 554.93 479.27 556.32 472.33 557.28 464.55 556.72 455.92 554.82 447.28 553.17 437.74 550.8 427.36 548.04 419.45 546.65 402.62 544.74 393.74 544.4 387.75 544.66 381.73 545.06 375.71 545.59 369.69 546.5 363.68 547.48 357.68 548.48 345.73 551.34 333.92 553.79 322.44 555.48 311.07 557.4 300.11 557.94 289.74 556.94 279.57 555.5 270.07 552.26 261.45 547.32 253.1 541.76 245.7 534.59 239.42 526.05 233.47 517.08 228.69 506.97 225.22 496.04 222.08 484.9 220.23 473.13 219.79 460.98 219.65 454.88 219.85 448.72 220.4 442.5 220.97 436.28 221.89 430.02 223.13 423.72 224.39 417.43 225.94 411.26 227.76 405.22 229.55 399.17 231.6 393.25 233.88 387.46 238.3 375.82 243.59 364.63 249.58 353.89 255.29 342.98 261.68 332.38 268.66 322.13 275.33 311.59 282.62 301.26 290.45 291.22 298.02 280.85 306.2 270.76 314.97 261.11 323.54 251.29 332.77 242.08 342.62 233.76 352.35 225.68 362.78 218.8 373.86 213.47 379.38 211.08 385.07 209.13 390.94 207.68 396.79 206.45 402.83 205.75 409.04 205.6" stroke-dasharray="7 1" transform="rotate(40.400000000000006, 400, 400)" opacity="0.36"></path><path d="M412.49 216.18C424.22 216.6 436.03 219.01 447.78 223.17 459.56 228.01 471.26 234.34 482.73 241.84 494.17 249.63 505.29 258.32 515.87 267.64 526.28 276.91 536 286.65 544.77 296.7 553.17 306.52 560.4 316.63 566.23 326.94 571.46 337.03 575.13 347.41 577.04 358.02 578.3 368.5 577.81 379.34 575.54 390.48 572.84 401.59 568.59 413.08 562.93 424.9 557.34 436.72 550.98 448.29 544.19 459.48 537.94 470.62 531.46 481.27 524.9 491.22 519.04 500.98 513.06 509.86 506.98 517.62 501.49 525.01 495.72 531.1 489.61 535.72 483.85 539.87 477.55 542.51 470.67 543.6 463.93 544.41 456.45 543.93 448.26 542.3 440.08 540.98 431.1 539.04 421.4 536.75 411.67 535.54 401.2 534.51 390.08 533.81 378.95 534.66 367.75 535.83 356.63 537.16 345.57 539.55 334.65 541.57 324.05 542.94 313.57 544.59 303.48 545.07 293.96 544.24 284.62 543.11 275.93 540.42 268.06 536.21 260.44 531.52 253.71 525.35 248.04 517.9 242.66 510.06 238.36 501.12 235.29 491.32 232.49 481.32 230.91 470.64 230.62 459.47 230.52 448.26 231.66 436.67 234.1 424.86 236.56 413.04 240.08 401.56 244.5 390.48 248.78 379.35 253.87 368.55 259.64 358.11 265.17 347.53 271.36 337.2 278.09 327.16 284.56 316.89 291.61 306.82 299.17 297.04 306.5 287.03 314.4 277.32 322.83 268.07 331.08 258.75 339.94 250.06 349.35 242.25 358.66 234.71 368.6 228.33 379.13 223.42 389.62 219.19 400.75 216.7 412.48 216.18" stroke-dasharray="3 2" transform="rotate(44.44, 400, 400)" opacity="0.74"></path><path d="M415.55 226.77C426.57 227.14 437.63 229.33 448.58 233.13 459.54 237.56 470.38 243.38 480.94 250.31 491.45 257.55 501.6 265.67 511.19 274.44 520.61 283.22 529.33 292.49 537.12 302.09 544.58 311.54 550.94 321.29 555.99 331.23 560.55 341.01 563.67 351.04 565.22 361.25 566.23 371.36 565.68 381.74 563.54 392.34 561.04 402.9 557.16 413.74 551.97 424.76 546.84 435.79 540.97 446.48 534.64 456.7 528.76 466.86 522.58 476.47 516.26 485.34 510.52 494.03 504.63 501.85 498.61 508.59 493.09 515.03 487.31 520.27 481.24 524.18 475.49 527.74 469.28 529.97 462.58 530.86 456.03 531.61 448.86 531.24 441.07 529.91 433.32 528.92 424.89 527.38 415.82 525.52 406.74 524.62 397.01 523.82 386.72 523.22 376.42 523.96 366.08 524.89 355.84 525.9 345.65 527.86 335.62 529.47 325.91 530.52 316.3 531.89 307.07 532.26 298.4 531.51 289.88 530.59 281.99 528.32 274.87 524.71 267.96 520.75 261.9 515.45 256.81 508.96 251.97 502.16 248.14 494.29 245.44 485.55 242.98 476.64 241.64 467 241.5 456.81 241.52 446.57 242.69 435.87 245.06 424.84 247.45 413.81 250.85 402.98 255.08 392.44 259.19 381.86 264.08 371.51 269.61 361.43 274.94 351.25 280.89 341.26 287.36 331.52 293.61 321.61 300.4 311.9 307.67 302.48 314.74 292.9 322.34 283.65 330.42 274.88 338.34 266.11 346.81 257.98 355.79 250.71 364.67 243.74 374.11 237.87 384.08 233.37 394.02 229.5 404.52 227.23 415.55 226.77" stroke-dasharray="10 1" transform="rotate(48.48, 400, 400)" opacity="0.08"></path><path d="M418.14 237.36C428.43 237.68 438.71 239.66 448.84 243.11 458.96 247.13 468.92 252.43 478.56 258.79 488.14 265.45 497.33 272.97 505.94 281.13 514.39 289.35 522.16 298.08 529.03 307.15 535.61 316.15 541.16 325.45 545.51 334.93 549.45 344.3 552.1 353.9 553.34 363.63 554.14 373.29 553.55 383.16 551.55 393.15 549.27 403.12 545.73 413.26 541.01 423.48 536.33 433.7 530.94 443.5 525.08 452.77 519.57 462 513.73 470.61 507.7 478.47 502.15 486.19 496.39 493.05 490.5 498.89 485.02 504.5 479.3 509.02 473.31 512.35 467.62 515.44 461.53 517.37 455.03 518.16 448.68 518.9 441.81 518.69 434.43 517.66 427.08 516.98 419.17 515.83 410.72 514.36 402.26 513.74 393.25 513.14 383.76 512.63 374.28 513.26 364.78 513.99 355.41 514.72 346.08 516.28 336.92 517.5 328.09 518.24 319.34 519.31 310.96 519.53 303.12 518.8 295.41 518 288.29 516.04 281.9 512.92 275.69 509.55 270.26 504.99 265.74 499.34 261.42 493.45 258.04 486.55 255.7 478.79 253.55 470.89 252.43 462.24 252.42 453 252.54 443.71 253.72 433.89 256.02 423.67 258.34 413.45 261.58 403.31 265.61 393.35 269.54 383.38 274.21 373.53 279.48 363.9 284.58 354.19 290.27 344.62 296.46 335.28 302.46 325.82 308.97 316.55 315.93 307.58 322.72 298.52 329.99 289.8 337.7 281.58 345.27 273.41 353.34 265.87 361.86 259.17 370.29 252.78 379.23 247.42 388.62 243.34 397.98 239.82 407.84 237.77 418.14 237.36" stroke-dasharray="9 6" transform="rotate(52.52, 400, 400)" opacity="0.46"></path><path d="M420.17 247.95C429.72 248.23 439.2 250 448.49 253.1 457.77 256.71 466.84 261.5 475.55 267.27 484.22 273.33 492.46 280.22 500.13 287.73 507.65 295.35 514.51 303.47 520.52 311.94 526.28 320.39 531.09 329.14 534.82 338.08 538.2 346.96 540.43 356.03 541.41 365.21 542.04 374.34 541.44 383.62 539.59 392.96 537.52 402.29 534.32 411.71 530.05 421.11 525.81 430.51 520.89 439.44 515.5 447.8 510.39 456.12 504.91 463.81 499.21 470.75 493.89 477.58 488.34 483.58 482.63 488.65 477.27 493.55 471.66 497.47 465.82 500.34 460.23 503.07 454.31 504.8 448.04 505.55 441.91 506.32 435.35 506.3 428.37 505.57 421.43 505.19 414.02 504.38 406.17 503.27 398.32 502.89 390.01 502.47 381.3 502.05 372.6 502.58 363.92 503.12 355.4 503.6 346.91 504.79 338.61 505.67 330.64 506.11 322.73 506.88 315.19 506.94 308.16 506.18 301.24 505.43 294.87 503.69 289.18 500.94 283.64 498.04 278.82 494.09 274.83 489.16 271.02 484.05 268.06 478.01 266.05 471.15 264.2 464.18 263.29 456.46 263.38 448.13 263.59 439.75 264.77 430.81 266.98 421.41 269.21 412 272.29 402.58 276.1 393.27 279.83 383.94 284.25 374.67 289.24 365.56 294.1 356.4 299.51 347.34 305.39 338.49 311.11 329.57 317.31 320.83 323.93 312.39 330.4 303.93 337.32 295.81 344.63 288.18 351.83 280.66 359.47 273.74 367.5 267.64 375.47 261.83 383.87 256.99 392.66 253.32 401.43 250.15 410.62 248.3 420.17 247.95" stroke-dasharray="6 9" transform="rotate(56.56, 400, 400)" opacity="0.36"></path><path d="M421.59 258.53C430.38 258.77 439.04 260.34 447.48 263.1 455.91 266.31 464.09 270.59 471.9 275.77 479.66 281.23 486.99 287.47 493.76 294.3 500.39 301.25 506.39 308.71 511.61 316.52 516.61 324.35 520.75 332.48 523.92 340.79 526.81 349.08 528.68 357.55 529.44 366.09 529.93 374.62 529.35 383.25 527.65 391.89 525.79 400.53 522.93 409.18 519.09 417.76 515.28 426.34 510.82 434.41 505.9 441.9 501.2 449.36 496.12 456.19 490.78 462.3 485.74 468.33 480.46 473.59 474.99 478 469.8 482.3 464.38 485.73 458.75 488.25 453.32 490.7 447.6 492.3 441.61 493.07 435.73 493.91 429.5 494.08 422.93 493.64 416.41 493.53 409.5 493.04 402.24 492.25 394.98 492.07 387.35 491.8 379.41 491.46 371.47 491.91 363.6 492.28 355.91 492.54 348.23 493.42 340.77 493.98 333.62 494.14 326.53 494.63 319.8 494.5 313.55 493.68 304.57 492.12 289.71 484.6 284.12 478.56 280.78 474.12 278.22 468.83 276.51 462.78 274.93 456.64 274.2 449.79 274.39 442.31 274.67 434.81 275.84 426.73 277.94 418.15 280.06 409.57 282.97 400.91 286.54 392.28 290.06 383.65 294.22 375.03 298.9 366.51 303.48 357.97 308.59 349.52 314.13 341.24 319.54 332.94 325.4 324.82 331.64 316.99 337.77 309.18 344.3 301.72 351.19 294.75 357.98 287.89 365.17 281.63 372.69 276.13 380.16 270.91 388 266.57 396.17 263.31 404.31 260.48 412.81 258.84 421.59 258.53" stroke-dasharray="1 9" transform="rotate(60.599999999999994, 400, 400)" opacity="0.30"></path><path d="M422.36 269.12C430.36 269.32 438.2 270.69 445.79 273.13 453.37 275.94 460.68 279.72 467.6 284.31 474.48 289.16 480.93 294.73 486.84 300.86 492.65 307.13 497.85 313.87 502.33 320.96 506.64 328.1 510.18 335.54 512.85 343.15 515.3 350.77 516.86 358.56 517.44 366.41 517.83 374.26 517.27 382.18 515.74 390.07 514.09 397.97 511.54 405.85 508.12 413.6 504.73 421.34 500.73 428.58 496.28 435.25 491.99 441.9 487.33 447.94 482.39 453.31 477.68 458.63 472.71 463.24 467.55 467.1 460.02 472.42 444.14 479.2 435.73 480.78 430.15 481.7 424.28 482.06 418.14 481.89 412.05 482.02 405.65 481.8 398.97 481.29 392.3 481.29 385.34 481.15 378.15 480.87 370.95 481.24 363.86 481.47 356.96 481.55 350.09 482.14 343.43 482.43 337.09 482.35 327.81 482.41 311.42 479.8 304.56 476.81 298.43 473.02 289.59 461.49 287.07 453.84 285.74 448.45 285.19 442.39 285.45 435.73 285.78 429.05 286.92 421.8 288.9 414.05 290.9 406.29 293.61 398.41 296.94 390.52 300.22 382.63 304.1 374.71 308.46 366.87 312.74 359.03 317.51 351.25 322.67 343.63 327.75 336.02 333.24 328.58 339.07 321.44 344.81 314.34 350.92 307.58 357.34 301.3 363.69 295.14 370.39 289.55 377.36 284.65 384.3 280.02 391.56 276.19 399.07 273.32 406.58 270.83 414.36 269.39 422.36 269.12" stroke-dasharray="7 6" transform="rotate(64.64, 400, 400)" opacity="0.71"></path><path d="M422.45 279.71C429.65 279.87 436.66 281.06 443.41 283.17 450.14 285.6 456.59 288.89 462.66 292.91 468.69 297.15 474.31 302.05 479.41 307.46 484.43 313.01 488.9 319.01 492.71 325.35 496.4 331.74 499.4 338.43 501.63 345.28 503.7 352.16 504.99 359.2 505.44 366.3 505.74 373.4 505.22 380.56 503.86 387.67 502.41 394.79 500.18 401.87 497.16 408.79 494.16 415.71 490.61 422.15 486.63 428.05 482.78 433.93 478.54 439.25 474.03 443.96 467.39 450.67 453.21 460.83 445.74 464.26 438.27 467.08 422.41 469.98 414 470.32 408.36 470.65 402.47 470.67 396.39 470.39 390.31 470.54 384.01 470.5 377.54 470.28 371.08 470.58 364.75 470.7 358.63 470.63 349.58 471 332.91 470.48 325.51 469.25 318.62 467.66 307.39 461.43 303.25 456.69 299.84 451.25 296.44 437.13 296.55 428.58 296.92 422.67 298.01 416.23 299.86 409.3 301.72 402.37 304.23 395.29 307.29 388.17 310.33 381.06 313.89 373.9 317.91 366.8 321.86 359.7 326.26 352.66 331.03 345.78 335.73 338.92 340.81 332.23 346.2 325.82 351.52 319.48 357.17 313.46 363.09 307.88 368.96 302.44 375.12 297.51 381.52 293.23 387.9 289.17 394.53 285.83 401.37 283.35 408.2 281.18 415.25 279.93 422.45 279.71" stroke-dasharray="2 11" transform="rotate(68.68, 400, 400)" opacity="0.08"></path><path d="M421.85 290.3C434.63 290.85 446.58 294.88 457.12 301.57 467.51 309.05 476.28 318.74 482.81 329.75 488.94 341.04 492.63 353.37 493.43 365.93 493.82 378.57 491.44 391.36 486.2 403.58 481.02 415.79 473.93 426.19 465.7 434.46 457.97 442.67 449.16 448.74 439.75 452.55 430.76 456.51 420.9 458.59 410.48 458.94 400.2 460.19 389.13 460.42 377.63 459.7 366.12 460.57 355.27 460.46 345.57 459.32 335.95 459.06 327.62 457.03 321.12 453.11 314.82 449.32 310.48 443.25 308.52 435.04 306.79 426.75 307.45 416.34 310.82 404.11 314.24 391.89 319.93 379.09 327.25 366.45 334.41 353.87 343.18 341.53 353.03 330.21 362.7 319.16 373.55 309.42 385.15 301.87 396.67 295.09 409.06 290.96 421.85 290.3" stroke-dasharray="1 0" transform="rotate(72.72, 400, 400)" opacity="0.94"></path><path d="M420.59 300.88C431.74 301.31 442.03 304.68 451 310.32 459.86 316.6 467.23 324.83 472.65 334.26 477.78 343.96 480.82 354.6 481.43 365.5 481.75 376.48 479.73 387.6 475.24 398.2 470.8 408.8 464.62 417.82 457.38 425.02 450.47 432.19 442.55 437.6 434.05 441.14 425.86 444.87 416.92 447.05 407.56 447.76 398.31 449.19 388.47 449.65 378.39 449.11 368.3 449.78 358.91 449.43 350.61 448.09 342.36 447.47 335.3 445.35 329.85 441.66 324.55 438.15 320.94 432.75 319.41 425.58 318.03 418.37 318.72 409.35 321.78 398.74 324.88 388.13 329.96 377 336.49 366.01 342.91 355.1 350.77 344.43 359.56 334.69 368.25 325.23 377.95 316.94 388.25 310.59 398.5 304.87 409.43 301.41 420.59 300.88" stroke-dasharray="3 1" transform="rotate(76.76, 400, 400)" opacity="0.37"></path><path d="M418.7 311.47C428.22 311.79 436.9 314.53 444.38 319.17 451.78 324.3 457.87 331.1 462.29 338.95 466.52 347.03 468.99 355.98 469.45 365.18 469.72 374.46 468.04 383.89 464.28 392.91 460.55 401.92 455.29 409.62 449.05 415.83 443.04 422.05 436.09 426.84 428.61 430.12 421.33 433.6 413.42 435.81 405.2 436.77 397.05 438.29 388.48 438.91 379.81 438.52 371.13 439.01 363.15 438.5 356.18 437.06 346.3 435.1 333.04 424.95 330.41 416.36 329.34 410.15 330.03 402.45 332.74 393.43 335.48 384.4 339.93 374.96 345.63 365.66 351.26 356.44 358.13 347.47 365.81 339.35 373.43 331.46 381.9 324.61 390.83 319.4 399.75 314.69 409.18 311.87 418.7 311.47" stroke-dasharray="6 10" transform="rotate(80.80000000000001, 400, 400)" opacity="0.46"></path><path d="M416.24 322.06C424.13 322.28 431.25 324.43 437.32 328.12 443.34 332.17 448.24 337.59 451.76 343.9 455.17 350.41 457.15 357.65 457.49 365.16 457.73 372.74 456.38 380.48 453.32 387.94 450.27 395.39 445.92 401.83 440.71 407.09 435.64 412.37 429.74 416.55 423.36 419.55 417.11 422.72 410.33 424.88 403.32 425.99 396.36 427.5 389.1 428.19 381.84 427.93 371.27 427.97 354.18 424.13 348.22 419.95 343.52 414.91 341.04 399.09 343.71 388.42 346.06 380.95 349.84 373.2 354.66 365.6 359.46 358.07 365.29 350.8 371.79 344.26 378.27 337.91 385.44 332.44 392.95 328.33 400.47 324.58 408.35 322.35 416.24 322.06" stroke-dasharray="8 2" transform="rotate(84.84, 400, 400)" opacity="0.32"></path><path d="M413.29 332.65C425.83 333.25 435.64 339.66 441.14 349.2 446.38 359.27 447.14 371.68 442.35 383.53 437.63 395.38 428.74 404.31 418.27 409.5 408.1 415.16 396.12 418.03 384.42 417.35 372.72 418.17 363.37 415.41 357.82 409.83 352.35 404.7 350.84 395.8 354.67 383.94 358.54 372.08 366.98 359.63 377.52 349.49 388.03 339.88 400.75 333.37 413.29 332.65" stroke-dasharray="11 4" transform="rotate(88.88, 400, 400)" opacity="0.19"></path><path d="M409.94 343.23C419.27 343.57 426.46 348.07 430.45 354.9 434.31 362.05 434.9 371.05 431.39 379.89 427.92 388.72 421.24 395.67 413.29 399.99 405.48 404.61 396.32 407.13 387.48 406.76 375.17 406.01 363.17 392.51 365.63 380.21 368.62 371.37 375.04 362.34 383.03 355.13 391.01 348.25 400.61 343.66 409.94 343.23" stroke-dasharray="1 5" transform="rotate(92.92, 400, 400)" opacity="0.72"></path><path d="M406.28 353.82C418.61 354.44 424.99 365.43 420.43 377.17 415.93 388.91 402.81 396.83 390.92 396.17 379.02 396.97 372.54 389.14 376.59 377.4 380.69 365.65 393.94 354.57 406.28 353.82" stroke-dasharray="3 3" transform="rotate(96.96, 400, 400)" opacity="0.97"></path></g></svg>